<svg width="48" height="43" viewBox="0 0 48 43" fill="none" xmlns="http://www.w3.org/2000/svg">
<path d="M30.9509 2.39863C30.8736 2.34045 30.1583 1.81539 28.8914 1.31982C27.2593 0.681295 25.3934 0.360532 23.4956 0.39224C21.5978 0.423949 19.7437 0.806863 18.1337 1.49956C16.8841 2.03718 16.1867 2.58583 16.1113 2.64665C15.7332 2.95154 15.5161 3.41938 15.5243 3.9116L15.5657 6.38732L17.1242 7.20548L18.6547 6.33571L18.6283 4.75356C19.4685 4.29744 21.1522 3.58814 23.5482 3.5481C25.9443 3.50807 27.6507 4.16074 28.5057 4.58853L28.5321 6.17059L30.0907 6.98875L31.6211 6.11898L31.5798 3.64335C31.5717 3.15103 31.3391 2.6907 30.9509 2.39863Z" fill="#E8834D"/>
<path d="M15.5664 6.38867L15.5955 8.13099L17.1542 8.94915L18.6846 8.07938L18.6555 6.33706L15.5664 6.38867Z" fill="#D66E41"/>
<path d="M31.6212 6.12026L28.5322 6.17188L28.5613 7.91419L30.12 8.73235L31.6503 7.86258L31.6212 6.12026Z" fill="#D66E41"/>
<path d="M1.63281 25.7275L1.86703 39.746C1.89483 41.4102 3.23787 42.7372 4.86676 42.71L43.5297 42.064C45.1586 42.0368 46.4565 40.6656 46.4287 39.0014L46.1945 24.983L1.63281 25.7275Z" fill="#365E7D"/>
<path d="M1.60352 23.9845L1.63263 25.7269C4.11611 27.6736 10.6565 31.4239 24.0112 31.2008C37.3658 30.9776 43.7773 27.0109 46.1943 24.9823L46.1652 23.2398L1.60352 23.9844L1.60352 23.9845Z" fill="#2B4D66"/>
<path d="M1.45893 22.9828C3.83987 24.8969 10.3736 28.7868 23.9673 28.5597C37.5609 28.3326 43.961 24.2266 46.2767 22.234C46.9555 21.65 47.3265 19.9413 47.3114 19.0344L47.1707 10.6159C47.1429 8.95166 45.7999 7.6246 44.171 7.65182L3.07634 8.33842C1.44745 8.36563 0.149494 9.73682 0.177299 11.401L0.317954 19.8196C0.333106 20.7264 0.760987 22.4218 1.45893 22.9828Z" fill="#E2E2E2"/>
<path d="M46.263 21.3908C43.9474 23.3834 37.5472 27.4894 23.9536 27.7165C10.3599 27.9436 3.82626 24.0536 1.44524 22.1396C0.747291 21.5786 0.333511 20.7272 0.318359 19.8203L0.347471 21.5627C0.362623 22.4696 0.776403 23.321 1.47435 23.882C3.85528 25.7961 10.389 29.686 23.9827 29.4589C37.5764 29.2318 43.9764 25.1258 46.2921 23.1332C46.971 22.5492 47.3561 21.6845 47.3409 20.7776L47.3118 19.0352C47.327 19.942 46.9418 20.8067 46.263 21.3908Z" fill="#365E7D"/>
<path d="M24.0305 32.3586C25.5563 32.3331 26.7738 31.1549 26.7319 28.6459L26.7033 26.9346C26.694 26.3798 26.2463 25.9375 25.7034 25.9466L22.1442 26.006C21.6012 26.0151 21.1686 26.4722 21.1779 27.0269L21.2065 28.7385C21.2483 31.2473 22.5046 32.3841 24.0305 32.3586Z" fill="#FFE27A"/>
<path d="M24.0169 31.5147C22.4911 31.5402 21.2331 30.2972 21.207 28.7383L21.2361 30.4807C21.2622 32.0396 22.5202 33.2826 24.046 33.2571C25.5718 33.2316 26.7876 31.9473 26.7615 30.3884L26.7324 28.646C26.7585 30.2048 25.5427 31.4892 24.0169 31.5147Z" fill="#F9CF58"/>
</svg>
