<svg width="64" height="61" viewBox="0 0 64 61" fill="none" xmlns="http://www.w3.org/2000/svg">
<g opacity="0.5">
<path d="M60.4068 53.0491H58.9846V42.6444C58.9846 34.7848 53.2208 28.0478 45.4361 26.8502C52.1729 22.4338 54.0442 13.3017 49.6279 6.56492C45.2116 -0.171888 36.0046 -2.04319 29.2678 2.44796C22.531 6.93912 20.5848 15.9965 25.0759 22.7333C26.1987 24.3801 27.546 25.8022 29.2678 26.9251C27.6958 27.1497 26.1988 27.5988 24.7766 28.2725H6.5122C4.41628 28.2725 2.69472 30.0689 2.91918 32.2397L4.71561 52.001C4.79048 52.3752 4.86535 52.7496 5.01509 53.0489H3.66789C1.64684 53.1239 0 54.7708 0 56.7918C0.0748706 58.8129 1.64684 60.3848 3.66789 60.4597H60.3321C62.3532 60.3848 64 58.7381 64 56.7169C64 54.6957 62.353 53.0491 60.4068 53.0491ZM56.3647 42.6444V52.9742H51.125C51.2748 52.6 51.4245 52.2256 51.4992 51.7766L51.9483 49.1567C52.098 48.3333 51.4244 47.6596 50.6758 47.6596H42.5168L41.0197 31.4913C40.9448 30.593 40.4957 29.7697 39.9718 29.2456H42.966C50.3765 29.3205 56.2899 35.3087 56.3647 42.6444V42.6444ZM49.0291 50.3543L48.8794 51.4022C48.7296 52.3005 47.9062 52.9742 47.0081 52.9742H43.0409L42.8163 50.3543H49.0291ZM25.3005 14.724C25.3005 8.06203 30.6151 2.67258 37.2771 2.67258C43.939 2.67258 49.3284 7.98715 49.3284 14.6491C49.3284 21.311 44.0139 26.7005 37.3519 26.7005C37.3519 26.7005 37.3519 26.7005 37.2771 26.7005C30.69 26.7006 25.3005 21.3861 25.3005 14.724V14.724ZM6.5122 30.8925H37.4268C37.9507 30.8925 38.3251 31.2667 38.4 31.7908L40.3461 53.0492H8.83272C8.08417 53.0492 7.41049 52.4504 7.33562 51.7019L5.53919 31.9403C5.46432 31.3415 6.06313 30.8925 6.5122 30.8925V30.8925ZM60.4068 57.8397H3.66789C3.06908 57.8397 2.62001 57.3158 2.62001 56.7169C2.62001 56.1181 3.06908 55.6691 3.66789 55.6691H60.3321C60.9309 55.6691 61.38 56.193 61.38 56.7918C61.38 57.3158 60.9309 57.7648 60.4068 57.8397V57.8397Z" fill="white"/>
<path d="M25.5098 36.0081L25.5003 35.8271L25.3203 35.8465C25.3026 35.8484 23.562 36.0582 23.4427 38.0042L23.4307 38.199L23.6255 38.1858C23.6454 38.1844 25.6168 38.0272 25.5098 36.0081ZM25.17 36.2254C25.1373 37.3981 24.2249 37.7243 23.8061 37.8123C23.9656 36.6726 24.792 36.3254 25.17 36.2254Z" fill="white"/>
<path d="M27.1868 42.2595L27.0772 42.224C26.414 42.0096 25.9686 41.4022 25.9686 40.7124C25.9686 40.0988 26.3156 39.55 26.8743 39.28L27.041 39.1996L26.9481 39.0396C26.9083 38.971 26.5363 38.3633 25.7505 38.1622C25.1272 38.0027 24.4265 38.1438 23.6669 38.5818C23.3453 38.3867 22.2772 37.8241 21.4274 38.388C21.2611 38.48 19.4979 39.5362 20.4156 42.3862C20.4425 42.45 21.0824 43.9491 21.8396 44.5106C22.0438 44.7058 22.5662 44.9497 23.1632 44.5427C23.2666 44.5 23.9586 44.2337 24.3977 44.5456C24.5597 44.6566 24.8427 44.7823 25.1416 44.7823C25.3684 44.7823 25.6042 44.7101 25.8035 44.5043C25.8964 44.4238 26.7455 43.666 27.1868 42.4655L27.1997 42.4305L27.1868 42.2595ZM25.5743 44.2486L25.5611 44.2611C25.185 44.6561 24.6148 44.2782 24.5937 44.2642C24.3694 44.1047 24.1096 44.0527 23.8659 44.0527C23.4235 44.0527 23.0346 44.224 23.0097 44.2352L22.9818 44.251C22.464 44.6123 22.1095 44.2944 22.0719 44.2582L22.0517 44.2409C21.3669 43.7414 20.7375 42.2674 20.7366 42.2669C19.8778 39.5969 21.5231 38.7237 21.5931 38.6882L21.612 38.677C22.4089 38.1419 23.5546 38.9164 23.5659 38.9241L23.6573 38.9869L23.752 38.9298C24.4654 38.4985 25.1092 38.3518 25.6654 38.4944C26.1185 38.6103 26.4073 38.8934 26.5486 39.0675C25.9746 39.4193 25.6258 40.0331 25.6258 40.7124C25.6258 41.4937 26.0949 42.188 26.8095 42.49C26.3696 43.5638 25.5827 44.2415 25.5743 44.2486Z" fill="white"/>
</g>
</svg>
