<svg width="53" height="43" viewBox="0 0 53 43" fill="none" xmlns="http://www.w3.org/2000/svg">
<path d="M48.0997 6.4501H37.3498V4.30003C37.3498 1.92855 35.4214 0 33.0498 0H20.1498C17.7783 0 15.8498 1.92845 15.8498 4.30003V6.45H5.09983C2.72825 6.4501 0.799805 8.37854 0.799805 10.75V38.7C0.799805 41.0715 2.72825 43 5.09983 43H48.0998C50.4713 43 52.3999 41.0716 52.3999 38.7V10.75C52.3998 8.37854 50.4713 6.4501 48.0997 6.4501ZM17.9998 4.30003C17.9998 3.11484 18.9646 2.15007 20.1498 2.15007H33.0498C34.235 2.15007 35.1997 3.11484 35.1997 4.30003V6.45H17.9998V4.30003ZM50.2498 38.7001C50.2498 39.8853 49.285 40.85 48.0998 40.85H5.09983C3.91465 40.85 2.94987 39.8853 2.94987 38.7001V23.0521C3.58489 23.4223 4.31314 23.6501 5.09983 23.6501H22.2999V26.8751C22.2998 27.0163 22.3275 27.1561 22.3815 27.2866C22.4355 27.4171 22.5147 27.5356 22.6145 27.6355C22.7144 27.7353 22.8329 27.8145 22.9634 27.8685C23.0939 27.9225 23.2337 27.9502 23.3749 27.9501H29.8249C29.9661 27.9502 30.1059 27.9225 30.2364 27.8685C30.3669 27.8145 30.4854 27.7353 30.5853 27.6355C30.6851 27.5356 30.7643 27.4171 30.8183 27.2866C30.8723 27.1561 30.9 27.0163 30.8999 26.8751V23.6501H48.0999C48.8866 23.6501 49.615 23.4225 50.2499 23.0521V38.7001H50.2498ZM24.4498 25.8001V21.5001H28.7499V25.8001H24.4498ZM50.2498 19.3501C50.2498 20.5353 49.285 21.5001 48.0998 21.5001H30.8998V20.425C30.8999 20.2838 30.8722 20.144 30.8182 20.0135C30.7642 19.883 30.685 19.7645 30.5852 19.6646C30.4853 19.5648 30.3668 19.4856 30.2363 19.4316C30.1058 19.3776 29.966 19.3499 29.8248 19.35H23.3748C23.2336 19.3499 23.0938 19.3776 22.9633 19.4316C22.8328 19.4856 22.7143 19.5648 22.6144 19.6646C22.5146 19.7645 22.4354 19.883 22.3814 20.0135C22.3274 20.144 22.2997 20.2838 22.2998 20.425V21.5001H5.09983C3.91465 21.5001 2.94987 20.5353 2.94987 19.3501V10.7501C2.94987 9.56494 3.91465 8.60016 5.09983 8.60016H48.0998C49.285 8.60016 50.2498 9.56494 50.2498 10.7501V19.3501Z" fill="#04103B"/>
</svg>
