<svg width="13" height="23" viewBox="0 0 13 23" fill="none" xmlns="http://www.w3.org/2000/svg">
<path d="M12.9584 7.86284C12.882 7.71018 12.7675 7.63382 12.6148 7.63382H8.11092L12.5767 0.572536C12.653 0.458028 12.653 0.305367 12.5767 0.19086C12.5003 0.076353 12.3858 0 12.2332 0H6.12614C5.97348 0 5.85897 0.076353 5.78262 0.19086L0.0572647 11.6416C-0.0190882 11.7561 -0.0190882 11.9087 0.0572647 12.0232C0.133618 12.1378 0.286279 12.2141 0.400786 12.2141H4.33218L0.0572647 22.4052C-0.0190882 22.5579 0.0572648 22.7488 0.209926 22.8633C0.24808 22.9014 0.324433 22.9014 0.400786 22.9014C0.515293 22.9014 0.6298 22.8633 0.706154 22.7869L12.9203 8.28267C12.9966 8.16816 13.0347 8.0155 12.9584 7.86284ZM1.73667 20.3441L5.24824 11.9469C5.28639 11.8324 5.28639 11.7179 5.21009 11.6034C5.13373 11.5271 5.01923 11.4508 4.90472 11.4508H1.01148L6.35516 0.763396H11.5461L7.0422 7.82464C6.96585 7.93915 6.96585 8.09181 7.0422 8.20631C7.11855 8.32082 7.23306 8.39717 7.38572 8.39717H11.8133L1.73667 20.3441Z" fill="black"/>
</svg>
