<svg width="35" height="34" viewBox="0 0 35 34" fill="none" xmlns="http://www.w3.org/2000/svg">
<path d="M30.9886 5.31168C30.9886 4.03602 29.9544 3.00195 28.6787 3.00195H27.1752C26.2451 3.00195 7.85941 3.00195 7.24492 3.00195C6.68199 3.00195 3.04028 3.00195 2.30979 3.00195C1.03428 3.00195 0 4.03609 0 5.31168V31.6805C0 32.3407 0.27747 32.9357 0.721601 33.3566H28.6787V33.9903H32.7246C33.7187 33.9903 34.5661 33.3622 34.8918 32.4812C35.1616 31.7678 35.2571 33.1317 30.9886 5.31168Z" fill="#BABABA"/>
<path d="M32.3996 31.6805V14.5046L30.9891 5.31168C30.9891 4.03602 29.9549 3.00195 28.6793 3.00195C27.923 3.00195 9.70913 3.00195 8.65599 3.00195H7.24553H6.68136C5.37488 3.00195 5.81436 3.00195 3.72093 3.00195C2.44541 3.00195 1.41113 4.03602 1.41113 5.31168V31.6805C1.41113 32.3407 1.6886 32.9357 2.13273 33.3566H28.6794V33.9903H30.0898C31.3654 33.9903 32.3996 32.9563 32.3996 31.6805Z" fill="#A8A8A8"/>
<path d="M28.6787 3.00195C27.8704 3.00195 8.57602 3.00195 7.24492 3.00195C6.44799 3.00195 2.8486 3.00195 2.30979 3.00195C1.03428 3.00195 0 4.03609 0 5.31168V31.6805C0 32.9562 1.03428 33.9903 2.30979 33.9903H28.6786C29.9543 33.9903 30.9885 32.9562 30.9885 31.6805V5.31168C30.9886 4.03609 29.9543 3.00195 28.6787 3.00195Z" fill="#E6E6E6"/>
<path d="M1.41046 31.6805V5.31168C1.41046 4.03602 2.44473 3.00195 3.72025 3.00195C2.92523 3.00195 3.10734 3.00195 2.30979 3.00195C1.03428 3.00195 0 4.03609 0 5.31168V31.6805C0 32.9562 1.03428 33.9903 2.30979 33.9903H3.72025C2.4448 33.9903 1.41046 32.9563 1.41046 31.6805Z" fill="#CCCBCA"/>
<path d="M28.6787 3.00195C27.7611 3.00195 8.77652 3.00195 7.24492 3.00195C1.77638 3.00195 7.42881 3.00195 2.30979 3.00195C1.03428 3.00195 0 4.03609 0 5.31168V11.245H30.9886V5.31168C30.9886 4.03609 29.9543 3.00195 28.6787 3.00195Z" fill="#EA473B"/>
<path d="M1.41046 5.31168C1.41046 4.03602 2.44473 3.00195 3.72025 3.00195C2.92523 3.00195 3.10734 3.00195 2.30979 3.00195C1.03428 3.00195 0 4.03609 0 5.31168V11.245H1.41046V5.31168Z" fill="#D63322"/>
<path d="M24.7328 5.06641V5.54725C24.7328 6.01469 24.354 6.04094 23.8865 6.04094H23.6044C23.137 6.04094 22.7581 6.01469 22.7581 5.54725V5.06647C22.3106 5.37874 22.0176 5.89704 22.0176 6.48411C22.0176 7.43841 22.7912 8.21196 23.7454 8.21196C25.4378 8.21189 26.11 6.02754 24.7328 5.06641Z" fill="#414356"/>
<path d="M15.9887 5.06641V5.54725C15.9887 6.01469 15.6098 5.97039 15.1424 5.97039H14.8603C14.3929 5.97039 14.014 6.01469 14.014 5.54725V5.06647C13.5665 5.37874 13.2734 5.89704 13.2734 6.48411C13.2734 7.43841 14.0471 8.21196 15.0013 8.21196C15.9556 8.21196 16.7291 7.43841 16.7291 6.48411C16.7291 5.89704 16.4361 5.37867 15.9887 5.06641Z" fill="#414356"/>
<path d="M7.24418 5.06641V5.54725C7.24418 6.09221 6.73128 6.04094 6.11577 6.04094C5.6484 6.04094 5.26948 6.01469 5.26948 5.54725V5.06647C3.89088 6.02856 4.56661 8.21196 6.25679 8.21196C7.21109 8.21196 7.98464 7.43841 7.98464 6.48411C7.98464 5.89704 7.69159 5.37867 7.24418 5.06641Z" fill="#414356"/>
<path d="M23.4996 6.48404C23.4996 6.4513 23.5009 6.4189 23.5026 6.38663C23.0838 6.33584 22.7591 5.97975 22.7591 5.54718V5.06641C22.3116 5.37867 22.0186 5.89697 22.0186 6.48404C22.0186 7.43834 22.7922 8.21189 23.7464 8.21189C24.0114 8.21189 24.2624 8.15208 24.4869 8.04537C23.9032 7.76803 23.4996 7.17324 23.4996 6.48404Z" fill="#2F3242"/>
<path d="M14.7535 6.48404C14.7535 6.4513 14.7548 6.4189 14.7565 6.38663C14.3377 6.33584 14.013 5.97975 14.013 5.54718V5.06641C13.5655 5.37867 13.2725 5.89697 13.2725 6.48404C13.2725 7.43834 14.0461 8.21189 15.0003 8.21189C15.2653 8.21189 15.5164 8.15208 15.7408 8.04537C15.1571 7.76803 14.7535 7.17324 14.7535 6.48404Z" fill="#2F3242"/>
<path d="M6.0124 6.38663C5.59356 6.33584 5.26886 5.97975 5.26886 5.54718V5.06641C4.82138 5.37867 4.52832 5.89697 4.52832 6.48404C4.52832 7.75662 5.8575 8.58671 6.99664 8.04537C6.37771 7.75122 5.97234 7.1083 6.0124 6.38663Z" fill="#2F3242"/>
<path d="M30.9886 11.2441H0V13.2188H30.9886V11.2441Z" fill="#F77C79"/>
<path d="M1.41046 11.2441H0V13.2188H1.41046V11.2441Z" fill="#DD6464"/>
<path d="M6.39794 0C6.86538 0 7.24423 0.378916 7.24423 0.846288V5.5479C7.24423 6.01535 6.86538 6.39419 6.39794 6.39419H6.11582C5.64845 6.39419 5.26953 6.01535 5.26953 5.5479V0.846288C5.26953 0.378916 5.64845 0 6.11582 0H6.39794Z" fill="#585A60"/>
<path d="M15.1431 0C15.6105 0 15.9893 0.378916 15.9893 0.846288V5.5479C15.9893 6.01535 15.6105 6.39419 15.1431 6.39419H14.8609C14.3936 6.39419 14.0146 6.01535 14.0146 5.5479V0.846288C14.0146 0.378916 14.3936 0 14.8609 0H15.1431Z" fill="#585A60"/>
<path d="M23.8882 0C24.3556 0 24.7345 0.378916 24.7345 0.846288V5.5479C24.7345 6.01535 24.3556 6.39419 23.8882 6.39419H23.6061C23.1387 6.39419 22.7598 6.01535 22.7598 5.5479V0.846288C22.7598 0.378916 23.1387 0 23.6061 0H23.8882Z" fill="#585A60"/>
<path d="M6.39891 0C6.86636 0 7.2452 0.378916 7.2452 0.846288V5.5479C7.2452 6.01535 6.86636 6.39419 6.39891 6.39419H6.1168C5.64942 6.39419 5.27051 6.01535 5.27051 5.5479V0.846288C5.27051 0.378916 5.64942 0 6.1168 0H6.39891Z" fill="#585A60"/>
<path d="M15.145 0C15.6125 0 15.9913 0.378916 15.9913 0.846288V5.5479C15.9913 6.01535 15.6125 6.39419 15.145 6.39419H14.8629C14.3955 6.39419 14.0166 6.01535 14.0166 5.5479V0.846288C14.0166 0.378916 14.3955 0 14.8629 0H15.145Z" fill="#585A60"/>
<path d="M23.8891 0C24.3566 0 24.7354 0.378916 24.7354 0.846288V5.5479C24.7354 6.01535 24.3566 6.39419 23.8891 6.39419H23.607C23.1397 6.39419 22.7607 6.01535 22.7607 5.5479V0.846288C22.7607 0.378916 23.1397 0 23.607 0H23.8891Z" fill="#585A60"/>
<path d="M6.25782 5.5479V0.846288C6.25782 0.504902 6.46044 0.211504 6.75151 0.0776562C6.64405 0.0283007 6.5249 0 6.39891 0H6.1168C5.64942 0 5.27051 0.378916 5.27051 0.846288V5.5479C5.27051 6.01535 5.64942 6.39419 6.1168 6.39419H6.39891C6.52497 6.39419 6.64412 6.36589 6.75151 6.31654C6.46044 6.18276 6.25782 5.88929 6.25782 5.5479Z" fill="#414356"/>
<path d="M15.002 5.5479V0.846288C15.002 0.504902 15.2046 0.211504 15.4957 0.0776562C15.3882 0.0283007 15.269 0 15.1431 0H14.8609C14.3936 0 14.0146 0.378916 14.0146 0.846288V5.5479C14.0146 6.01535 14.3936 6.39419 14.8609 6.39419H15.1431C15.2691 6.39419 15.3883 6.36589 15.4957 6.31654C15.2046 6.18276 15.002 5.88929 15.002 5.5479Z" fill="#414356"/>
<path d="M23.7471 5.5479V0.846288C23.7471 0.504902 23.9497 0.211504 24.2408 0.0776562C24.1333 0.0283007 24.0142 0 23.8882 0H23.6061C23.1387 0 22.7598 0.378916 22.7598 0.846288V5.5479C22.7598 6.01535 23.1387 6.39419 23.6061 6.39419H23.8882C24.0142 6.39419 24.1334 6.36589 24.2408 6.31654C23.9497 6.18276 23.7471 5.88929 23.7471 5.5479Z" fill="#414356"/>
<path d="M11.5233 16.46H9.78189C9.4898 16.46 9.25293 16.6968 9.25293 16.9889C9.25293 17.281 9.4898 17.5179 9.78189 17.5179H11.5233C11.8154 17.5179 12.0522 17.2811 12.0522 16.9889C12.0522 16.6968 11.8154 16.46 11.5233 16.46Z" fill="#585A60"/>
<path d="M16.3653 16.46H14.6237C14.3316 16.46 14.0947 16.6968 14.0947 16.9889C14.0947 17.281 14.3316 17.5179 14.6237 17.5179H16.3653C16.6574 17.5179 16.8942 17.2811 16.8942 16.9889C16.8942 16.6968 16.6574 16.46 16.3653 16.46Z" fill="#585A60"/>
<path d="M21.2071 16.46H19.4655C19.1734 16.46 18.9365 16.6968 18.9365 16.9889C18.9365 17.281 19.1734 17.5179 19.4655 17.5179H21.2071C21.4992 17.5179 21.7361 17.2811 21.7361 16.9889C21.7361 16.6968 21.4992 16.46 21.2071 16.46Z" fill="#585A60"/>
<path d="M26.0469 16.46H24.3053C24.0132 16.46 23.7764 16.6968 23.7764 16.9889C23.7764 17.281 24.0132 17.5179 24.3053 17.5179H26.0469C26.3391 17.5179 26.5759 17.2811 26.5759 16.9889C26.5758 16.6968 26.3391 16.46 26.0469 16.46Z" fill="#585A60"/>
<path d="M6.68266 20.7217H4.94107C4.64897 20.7217 4.41211 20.9585 4.41211 21.2506C4.41211 21.5427 4.64897 21.7796 4.94107 21.7796H6.68266C6.97483 21.7796 7.21163 21.5428 7.21163 21.2506C7.21156 20.9585 6.97483 20.7217 6.68266 20.7217Z" fill="#585A60"/>
<path d="M11.5233 20.7217H9.78189C9.4898 20.7217 9.25293 20.9585 9.25293 21.2506C9.25293 21.5427 9.4898 21.7796 9.78189 21.7796H11.5233C11.8154 21.7796 12.0522 21.5428 12.0522 21.2506C12.0522 20.9585 11.8154 20.7217 11.5233 20.7217Z" fill="#585A60"/>
<path d="M16.3653 20.7217H14.6237C14.3316 20.7217 14.0947 20.9585 14.0947 21.2506C14.0947 21.5427 14.3316 21.7796 14.6237 21.7796H16.3653C16.6574 21.7796 16.8942 21.5428 16.8942 21.2506C16.8942 20.9585 16.6574 20.7217 16.3653 20.7217Z" fill="#585A60"/>
<path d="M21.2071 20.7217H19.4655C19.1734 20.7217 18.9365 20.9585 18.9365 21.2506C18.9365 21.5427 19.1734 21.7796 19.4655 21.7796H21.2071C21.4992 21.7796 21.7361 21.5428 21.7361 21.2506C21.7361 20.9585 21.4992 20.7217 21.2071 20.7217Z" fill="#585A60"/>
<path d="M26.0469 20.7217H24.3053C24.0132 20.7217 23.7764 20.9585 23.7764 21.2506C23.7764 21.5427 24.0132 21.7796 24.3053 21.7796H26.0469C26.3391 21.7796 26.5759 21.5428 26.5759 21.2506C26.5758 20.9585 26.3391 20.7217 26.0469 20.7217Z" fill="#585A60"/>
<path d="M6.68266 24.9824H4.94107C4.64897 24.9824 4.41211 25.2192 4.41211 25.5114C4.41211 25.8036 4.64897 26.0403 4.94107 26.0403H6.68266C6.97483 26.0403 7.21163 25.8036 7.21163 25.5114C7.21163 25.2192 6.97483 24.9824 6.68266 24.9824Z" fill="#585A60"/>
<path d="M11.5233 24.9824H9.78189C9.4898 24.9824 9.25293 25.2192 9.25293 25.5114C9.25293 25.8036 9.4898 26.0403 9.78189 26.0403H11.5233C11.8154 26.0403 12.0522 25.8036 12.0522 25.5114C12.0522 25.2192 11.8154 24.9824 11.5233 24.9824Z" fill="#585A60"/>
<path d="M16.3653 24.9824H14.6237C14.3316 24.9824 14.0947 25.2192 14.0947 25.5114C14.0947 25.8036 14.3316 26.0403 14.6237 26.0403H16.3653C16.6574 26.0403 16.8942 25.8036 16.8942 25.5114C16.8942 25.2192 16.6574 24.9824 16.3653 24.9824Z" fill="#585A60"/>
<path d="M21.2071 24.9824H19.4655C19.1734 24.9824 18.9365 25.2192 18.9365 25.5114C18.9365 25.8036 19.1734 26.0403 19.4655 26.0403H21.2071C21.4992 26.0403 21.7361 25.8036 21.7361 25.5114C21.7361 25.2192 21.4992 24.9824 21.2071 24.9824Z" fill="#585A60"/>
<path d="M26.0469 24.9824H24.3053C24.0132 24.9824 23.7764 25.2192 23.7764 25.5114C23.7764 25.8036 24.0132 26.0403 24.3053 26.0403H26.0469C26.3391 26.0403 26.5759 25.8036 26.5759 25.5114C26.5759 25.2192 26.3391 24.9824 26.0469 24.9824Z" fill="#585A60"/>
<path d="M6.68266 29.2441H4.94107C4.64897 29.2441 4.41211 29.4809 4.41211 29.7731C4.41211 30.0652 4.64897 30.3021 4.94107 30.3021H6.68266C6.97483 30.3021 7.21163 30.0653 7.21163 29.7731C7.21156 29.4809 6.97483 29.2441 6.68266 29.2441Z" fill="#585A60"/>
<path d="M11.5233 29.2441H9.78189C9.4898 29.2441 9.25293 29.4809 9.25293 29.7731C9.25293 30.0652 9.4898 30.3021 9.78189 30.3021H11.5233C11.8154 30.3021 12.0522 30.0653 12.0522 29.7731C12.0522 29.4809 11.8154 29.2441 11.5233 29.2441Z" fill="#585A60"/>
<path d="M16.3653 29.2441H14.6237C14.3316 29.2441 14.0947 29.4809 14.0947 29.7731C14.0947 30.0652 14.3316 30.3021 14.6237 30.3021H16.3653C16.6574 30.3021 16.8942 30.0653 16.8942 29.7731C16.8942 29.4809 16.6574 29.2441 16.3653 29.2441Z" fill="#585A60"/>
<path d="M21.2071 29.2441H19.4655C19.1734 29.2441 18.9365 29.4809 18.9365 29.7731C18.9365 30.0652 19.1734 30.3021 19.4655 30.3021H21.2071C21.4992 30.3021 21.7361 30.0653 21.7361 29.7731C21.7361 29.4809 21.4992 29.2441 21.2071 29.2441Z" fill="#585A60"/>
</svg>
