<svg width="40" height="40" viewBox="0 0 40 40" fill="none" xmlns="http://www.w3.org/2000/svg">
<path d="M12.8997 15.7049C12.6886 15.8505 12.5752 16.082 12.5752 16.3135C12.5752 16.4553 12.6182 16.6047 12.712 16.7316C12.9623 17.0825 13.4627 17.1609 13.8224 16.9145C15.5584 15.7236 17.6931 15.0217 20.0038 15.0217V13.5283C17.3491 13.5283 14.8976 14.3347 12.8997 15.7049Z" fill="#F4C67D"/>
<path d="M27.1115 15.7061C25.1134 14.3352 22.6618 13.5283 20.0068 13.5283V15.0225C21.5083 15.0225 22.9394 15.3213 24.2337 15.8555C24.9258 16.1394 25.5827 16.498 26.1887 16.9126C26.5484 17.1629 27.0489 17.0807 27.2992 16.7333C27.5377 16.4009 27.4556 15.9451 27.1115 15.7061Z" fill="#E0A546"/>
<path d="M23.0524 19.5479C23.5367 19.7844 23.9923 20.0789 24.4151 20.4181C24.7886 20.7171 25.314 20.6056 25.5725 20.1905L25.5766 20.1861C25.8229 19.7933 25.749 19.2578 25.3961 18.9722C23.8897 17.7672 22.0221 17.0576 20.0068 17.0576V18.8427C21.0904 18.8427 22.1248 19.0927 23.0524 19.5479Z" fill="#E0A546"/>
<path d="M14.4336 20.1949L14.4377 20.1993C14.7045 20.629 15.2381 20.7095 15.6239 20.4007C16.8511 19.4251 18.3657 18.8478 20.0034 18.8478V17.0576C17.9881 17.0576 16.1205 17.7692 14.6142 18.9776C14.2612 19.264 14.1873 19.801 14.4336 20.1949Z" fill="#F4C67D"/>
<path d="M16.7066 23.1195H16.7105C16.9592 23.5592 17.476 23.6656 17.8257 23.337C18.4241 22.7724 19.178 22.4392 20.0018 22.4392V20.5879C18.8283 20.5879 17.7441 21.0646 16.8814 21.856C16.555 22.1615 16.4734 22.7076 16.7066 23.1195Z" fill="#F4C67D"/>
<path d="M22.183 23.337C22.5327 23.6656 23.0495 23.5592 23.2982 23.1195H23.3021C23.5353 22.7076 23.4537 22.1615 23.1272 21.856C22.2646 21.0646 21.1804 20.5879 20.0068 20.5879V22.4392C20.8307 22.4392 21.5845 22.7724 22.183 23.337Z" fill="#E0A546"/>
<path d="M21.7211 25.8799C21.7211 24.9049 20.954 24.1152 20.0068 24.1152V27.6446C20.954 27.6446 21.7211 26.8549 21.7211 25.8799Z" fill="#E0A546"/>
<path d="M18.2881 25.8799C18.2881 26.8549 19.0552 27.6446 20.0024 27.6446V24.1152C19.0552 24.1152 18.2881 24.9049 18.2881 25.8799Z" fill="#F4C67D"/>
<rect x="9.07227" y="8.73535" width="21.8573" height="22.5293" rx="4.5" stroke="#FCB12B"/>
<rect x="33.7148" y="12.9424" width="6.28575" height="1.17647" rx="0.588233" fill="#D9D9D9"/>
<rect x="33.7148" y="19.4121" width="6.28575" height="1.17647" rx="0.588233" fill="#D9D9D9"/>
<rect x="33.7148" y="25.8828" width="6.28575" height="1.17647" rx="0.588233" fill="#D9D9D9"/>
<rect y="25.8828" width="6.28575" height="1.17647" rx="0.588233" fill="#D9D9D9"/>
<rect y="19.999" width="6.28575" height="1.17647" rx="0.588233" fill="#D9D9D9"/>
<rect y="12.9424" width="6.28575" height="1.17647" rx="0.588233" fill="#D9D9D9"/>
<rect x="13.7158" y="6.4707" width="6.47056" height="1.14286" rx="0.571432" transform="rotate(-90 13.7158 6.4707)" fill="#D9D9D9"/>
<rect x="13.7158" y="40" width="6.47056" height="1.14286" rx="0.571432" transform="rotate(-90 13.7158 40)" fill="#D9D9D9"/>
<rect x="19.4287" y="6.4707" width="6.47056" height="1.14286" rx="0.571432" transform="rotate(-90 19.4287 6.4707)" fill="#D9D9D9"/>
<rect x="19.4287" y="40" width="6.47056" height="1.14286" rx="0.571432" transform="rotate(-90 19.4287 40)" fill="#D9D9D9"/>
<rect x="25.1455" y="6.4707" width="6.47056" height="1.14286" rx="0.571432" transform="rotate(-90 25.1455 6.4707)" fill="#D9D9D9"/>
<rect x="25.1455" y="40" width="6.47056" height="1.14286" rx="0.571432" transform="rotate(-90 25.1455 40)" fill="#CCCCCC"/>
</svg>
