<svg width="33" height="33" viewBox="0 0 33 33" fill="none" xmlns="http://www.w3.org/2000/svg">
<path d="M21.0861 0.178277C20.9599 0.0635607 20.7954 0 20.6248 0C20.4543 0 20.2898 0.0635607 20.1636 0.178277C19.8644 0.448075 13.0165 6.7068 9.83648 13.9607C9.49372 13.8404 9.09915 13.7502 8.589 13.7502C7.38523 13.7502 6.73935 14.1994 6.22038 14.5606C5.76721 14.8762 5.40937 15.1252 4.63658 15.1252C3.86515 15.1252 3.50731 14.8761 3.05479 14.5612C2.53646 14.2 1.89059 13.7502 0.687515 13.7502C0.597212 13.7502 0.507784 13.7679 0.424344 13.8024C0.340904 13.837 0.26509 13.8876 0.201236 13.9515C0.137383 14.0153 0.0867431 14.0911 0.0522133 14.1746C0.0176834 14.258 -5.91693e-05 14.3474 1.48243e-07 14.4377C-5.91693e-05 14.528 0.0176834 14.6175 0.0522133 14.7009C0.0867431 14.7844 0.137383 14.8602 0.201236 14.924C0.26509 14.9879 0.340904 15.0385 0.424344 15.073C0.507784 15.1076 0.597212 15.1253 0.687515 15.1253C1.45895 15.1253 1.81679 15.3744 2.26931 15.6892C2.78764 16.0504 3.43351 16.5002 4.63658 16.5002C5.84036 16.5002 6.48689 16.0504 7.00586 15.6892C7.45902 15.3744 7.81686 15.1253 8.589 15.1253C9.36243 15.1253 9.72098 15.3744 10.1748 15.6899C10.6938 16.0511 11.3403 16.5002 12.5448 16.5002C13.7486 16.5002 14.3951 16.0511 14.9148 15.6899C15.3679 15.3743 15.7265 15.1253 16.4999 15.1253C16.5902 15.1253 16.6796 15.1076 16.7631 15.073C16.8465 15.0385 16.9223 14.9879 16.9862 14.924C17.05 14.8602 17.1007 14.7844 17.1352 14.7009C17.1697 14.6175 17.1875 14.528 17.1874 14.4377C17.1875 14.3474 17.1697 14.258 17.1352 14.1746C17.1007 14.0911 17.05 14.0153 16.9862 13.9515C16.9223 13.8876 16.8465 13.837 16.7631 13.8024C16.6796 13.7679 16.5902 13.7502 16.4999 13.7502C15.2955 13.7502 14.6489 14.1994 14.1293 14.5606C13.6761 14.8762 13.3176 15.1252 12.5448 15.1252C11.8225 15.1252 11.4606 14.9048 11.0468 14.619C13.6327 8.64675 19.0171 3.18086 20.6249 1.63245C22.766 3.69558 31.6248 12.7096 31.6248 20.6251C31.6248 26.6904 26.6902 31.625 20.6249 31.625C17.8872 31.625 15.2967 30.6053 13.2915 28.8047C14.0354 28.6669 14.5157 28.3421 14.9148 28.0647C15.368 27.7491 15.7265 27.5001 16.5 27.5001C16.88 27.5001 17.1875 27.1926 17.1875 26.8126C17.1875 26.4325 16.88 26.125 16.5 26.125C15.2955 26.125 14.649 26.5742 14.1293 26.9354C13.6762 27.251 13.3176 27.5 12.5449 27.5C11.7715 27.5 11.4129 27.2509 10.9598 26.9354C10.4401 26.5742 9.79356 26.125 8.58913 26.125C7.38535 26.125 6.73948 26.5742 6.2205 26.9354C5.76734 27.251 5.4095 27.5 4.63671 27.5C3.86528 27.5 3.50744 27.2509 3.05492 26.936C2.53659 26.5749 1.89071 26.125 0.687644 26.125C0.307632 26.125 0.000129053 26.4325 0.000129053 26.8126C0.000129053 27.1926 0.307632 27.5001 0.687644 27.5001C1.45908 27.5001 1.81692 27.7492 2.26944 28.064C2.78776 28.4252 3.43364 28.875 4.63671 28.875C5.84049 28.875 6.48702 28.4252 7.00599 28.064C7.45915 27.7492 7.81699 27.5001 8.58913 27.5001C9.36256 27.5001 9.72111 27.7492 10.1749 28.0647C10.455 28.2595 10.7817 28.4743 11.2036 28.636C13.5626 31.4072 16.9821 33 20.6249 33C27.4482 33 32.9998 27.4484 32.9998 20.6251C32.9997 11.0627 21.5722 0.618036 21.0861 0.178277Z" fill="#00C2FF"/>
<path d="M0.687515 23.375C1.45895 23.375 1.81679 23.6241 2.26931 23.9389C2.78763 24.3001 3.43351 24.75 4.63658 24.75C4.72689 24.75 4.81631 24.7323 4.89975 24.6977C4.98319 24.6632 5.05901 24.6126 5.12286 24.5487C5.18672 24.4849 5.23736 24.409 5.27188 24.3256C5.30642 24.2422 5.32416 24.1527 5.3241 24.0624C5.32416 23.9721 5.30642 23.8827 5.27188 23.7993C5.23736 23.7158 5.18672 23.64 5.12286 23.5762C5.05901 23.5123 4.98319 23.4617 4.89975 23.4271C4.81631 23.3926 4.72689 23.3749 4.63658 23.3749C3.86515 23.3749 3.50731 23.1258 3.05479 22.811C2.53646 22.4498 1.89059 22 0.687515 22C0.307503 22 1.48243e-07 22.3075 1.48243e-07 22.6875C1.48243e-07 23.0675 0.307503 23.375 0.687515 23.375ZM8.589 22C8.20899 22 7.90149 22.3075 7.90149 22.6875C7.90149 23.0676 8.20899 23.3751 8.589 23.3751C9.36243 23.3751 9.72098 23.6242 10.1741 23.9397C10.6938 24.3008 11.3404 24.75 12.5448 24.75C13.7486 24.75 14.3951 24.3008 14.9148 23.9397C15.3679 23.6241 15.7265 23.3751 16.4999 23.3751C17.2861 23.3751 17.6862 23.6309 18.1918 23.9545C18.7752 24.3271 19.4366 24.7501 20.6249 24.7501C20.7152 24.7501 20.8046 24.7324 20.888 24.6979C20.9715 24.6633 21.0473 24.6127 21.1111 24.5488C21.175 24.485 21.2256 24.4092 21.2602 24.3257C21.2947 24.2423 21.3124 24.1529 21.3124 24.0626C21.3124 23.9723 21.2947 23.8828 21.2602 23.7994C21.2256 23.716 21.175 23.6401 21.1111 23.5763C21.0473 23.5124 20.9715 23.4618 20.888 23.4273C20.8046 23.3927 20.7152 23.375 20.6249 23.3751C19.8387 23.3751 19.4385 23.1192 18.933 22.7956C18.3496 22.423 17.6882 22 16.4999 22C15.2955 22 14.6489 22.4492 14.1293 22.8104C13.6761 23.1259 13.3176 23.375 12.5448 23.375C11.7714 23.375 11.4129 23.1259 10.9591 22.8104C10.44 22.4491 9.79349 22 8.589 22ZM8.589 17.8751C7.38522 17.8751 6.73935 18.3242 6.22037 18.6854C5.76721 19.001 5.40937 19.25 4.63658 19.25C3.86515 19.25 3.50731 19.0009 3.05479 18.6861C2.53646 18.3249 1.89059 17.8751 0.687515 17.8751C0.597212 17.875 0.507784 17.8927 0.424344 17.9273C0.340904 17.9618 0.26509 18.0124 0.201236 18.0763C0.137383 18.1402 0.0867431 18.216 0.0522133 18.2994C0.0176834 18.3828 -5.91693e-05 18.4723 1.48243e-07 18.5626C-5.91693e-05 18.6529 0.0176834 18.7423 0.0522133 18.8257C0.0867431 18.9092 0.137383 18.985 0.201236 19.0489C0.26509 19.1127 0.340904 19.1633 0.424344 19.1979C0.507784 19.2324 0.597212 19.2502 0.687515 19.2501C1.45895 19.2501 1.81679 19.4992 2.26931 19.8141C2.78763 20.1752 3.43351 20.6251 4.63658 20.6251C5.84036 20.6251 6.48689 20.1752 7.00586 19.8141C7.45902 19.4992 7.81686 19.2501 8.589 19.2501C8.67931 19.2502 8.76873 19.2324 8.85217 19.1979C8.93561 19.1633 9.01143 19.1127 9.07528 19.0489C9.13914 18.985 9.18978 18.9092 9.22431 18.8257C9.25884 18.7423 9.27658 18.6529 9.27652 18.5626C9.27658 18.4723 9.25884 18.3828 9.22431 18.2994C9.18978 18.216 9.13914 18.1402 9.07528 18.0763C9.01143 18.0124 8.93561 17.9618 8.85217 17.9273C8.76873 17.8927 8.67931 17.875 8.589 17.8751ZM14.9148 19.8146C15.3679 19.4991 15.7265 19.25 16.4999 19.25C17.2713 19.25 17.6292 19.4991 18.0817 19.814C18.6 20.1752 19.2459 20.625 20.449 20.625C21.6528 20.625 22.2993 20.1752 22.8182 19.814C23.2714 19.4991 23.6292 19.25 24.4014 19.25C24.4917 19.2501 24.5811 19.2323 24.6646 19.1978C24.748 19.1633 24.8238 19.1126 24.8877 19.0488C24.9515 18.9849 25.0022 18.9091 25.0367 18.8257C25.0712 18.7422 25.089 18.6528 25.0889 18.5625C25.089 18.4722 25.0712 18.3828 25.0367 18.2993C25.0022 18.2159 24.9515 18.1401 24.8877 18.0762C24.8238 18.0124 24.748 17.9617 24.6646 17.9272C24.5811 17.8927 24.4917 17.8749 24.4014 17.875C23.1976 17.875 22.5517 18.3242 22.0328 18.6854C21.5796 19.0009 21.2218 19.25 20.449 19.25C19.6775 19.25 19.3197 19.0009 18.8672 18.686C18.3489 18.3248 17.703 17.875 16.4999 17.875C15.2955 17.875 14.6489 18.3242 14.1293 18.6854C13.6761 19.0009 13.3176 19.25 12.5448 19.25C12.1648 19.25 11.8573 19.5575 11.8573 19.9375C11.8573 20.3175 12.1648 20.625 12.5448 20.625C13.7486 20.625 14.3951 20.1758 14.9148 19.8146Z" fill="#00C2FF"/>
</svg>
