<svg width="29" height="25" viewBox="0 0 29 25" fill="none" xmlns="http://www.w3.org/2000/svg">
<path d="M27.7258 24.8583H1.27424C1.10691 24.8583 0.941209 24.8253 0.786611 24.7613C0.632013 24.6973 0.491541 24.6034 0.373217 24.4851C0.254893 24.3668 0.161033 24.2263 0.0969959 24.0717C0.0329593 23.9171 0 23.7514 0 23.5841V3.96467C0 3.62672 0.13425 3.30261 0.373217 3.06365C0.612184 2.82468 0.936292 2.69043 1.27424 2.69043H27.7258C28.0637 2.69043 28.3878 2.82468 28.6268 3.06365C28.8658 3.30261 29 3.62672 29 3.96467V23.5849C28.9998 23.9227 28.8654 24.2466 28.6265 24.4854C28.3875 24.7242 28.0636 24.8583 27.7258 24.8583ZM1.27424 3.5701C1.16936 3.5701 1.06878 3.61176 0.994614 3.68592C0.920452 3.76008 0.878788 3.86067 0.878788 3.96555V23.5849C0.878788 23.6898 0.920452 23.7904 0.994614 23.8646C1.06878 23.9387 1.16936 23.9804 1.27424 23.9804H27.7258C27.8306 23.9804 27.9312 23.9387 28.0054 23.8646C28.0795 23.7904 28.1212 23.6898 28.1212 23.5849V3.96467C28.1212 3.85979 28.0795 3.75921 28.0054 3.68504C27.9312 3.61088 27.8306 3.56922 27.7258 3.56922L1.27424 3.5701Z" fill="white"/>
<path d="M24.6601 3.57008H20.8154C20.6988 3.57008 20.5871 3.52378 20.5047 3.44138C20.4223 3.35898 20.376 3.24722 20.376 3.13068V0.439394C20.376 0.322859 20.4223 0.211098 20.5047 0.128695C20.5871 0.0462928 20.6988 0 20.8154 0H24.6601C24.7766 0 24.8884 0.0462928 24.9708 0.128695C25.0532 0.211098 25.0995 0.322859 25.0995 0.439394V3.13068C25.0995 3.24722 25.0532 3.35898 24.9708 3.44138C24.8884 3.52378 24.7766 3.57008 24.6601 3.57008ZM21.2548 2.69129H24.2207V0.878788H21.2548V2.69129Z" fill="white"/>
<path d="M8.18351 3.57008H4.33881C4.22227 3.57008 4.11051 3.52378 4.02811 3.44138C3.94571 3.35898 3.89941 3.24722 3.89941 3.13068V0.439394C3.89941 0.322859 3.94571 0.211098 4.02811 0.128695C4.11051 0.0462928 4.22227 0 4.33881 0H8.18351C8.30004 0 8.4118 0.0462928 8.4942 0.128695C8.57661 0.211098 8.6229 0.322859 8.6229 0.439394V3.13068C8.6229 3.24722 8.57661 3.35898 8.4942 3.44138C8.4118 3.52378 8.30004 3.57008 8.18351 3.57008ZM4.7782 2.69129H7.74411V0.878788H4.7782V2.69129Z" fill="white"/>
<path d="M28.5259 8.51355H0.439394C0.322859 8.51355 0.211098 8.46726 0.128696 8.38486C0.0462932 8.30246 0 8.19069 0 8.07416C0 7.95763 0.0462932 7.84586 0.128696 7.76346C0.211098 7.68106 0.322859 7.63477 0.439394 7.63477H28.5259C28.6424 7.63477 28.7542 7.68106 28.8366 7.76346C28.919 7.84586 28.9653 7.95763 28.9653 8.07416C28.9653 8.19069 28.919 8.30246 28.8366 8.38486C28.7542 8.46726 28.6424 8.51355 28.5259 8.51355Z" fill="white"/>
<path d="M23.0097 6.94688C22.8932 6.94688 22.7814 6.90059 22.699 6.81819C22.6166 6.73578 22.5703 6.62402 22.5703 6.50749V4.53021C22.5703 4.41368 22.6166 4.30192 22.699 4.21952C22.7814 4.13711 22.8932 4.09082 23.0097 4.09082C23.1262 4.09082 23.238 4.13711 23.3204 4.21952C23.4028 4.30192 23.4491 4.41368 23.4491 4.53021V6.50749C23.4491 6.62402 23.4028 6.73578 23.3204 6.81819C23.238 6.90059 23.1262 6.94688 23.0097 6.94688Z" fill="white"/>
<path d="M23.9997 5.95887H22.0224C21.9059 5.95887 21.7941 5.91257 21.7117 5.83017C21.6293 5.74777 21.583 5.63601 21.583 5.51947C21.583 5.40294 21.6293 5.29118 21.7117 5.20877C21.7941 5.12637 21.9059 5.08008 22.0224 5.08008H23.9997C24.1162 5.08008 24.228 5.12637 24.3104 5.20877C24.3928 5.29118 24.4391 5.40294 24.4391 5.51947C24.4391 5.63601 24.3928 5.74777 24.3104 5.83017C24.228 5.91257 24.1162 5.95887 23.9997 5.95887Z" fill="white"/>
<path d="M7.2386 5.95887H4.96869C4.85216 5.95887 4.74039 5.91257 4.65799 5.83017C4.57559 5.74777 4.5293 5.63601 4.5293 5.51947C4.5293 5.40294 4.57559 5.29118 4.65799 5.20877C4.74039 5.12637 4.85216 5.08008 4.96869 5.08008H7.2386C7.35513 5.08008 7.4669 5.12637 7.5493 5.20877C7.6317 5.29118 7.67799 5.40294 7.67799 5.51947C7.67799 5.63601 7.6317 5.74777 7.5493 5.83017C7.4669 5.91257 7.35513 5.95887 7.2386 5.95887Z" fill="white"/>
<path d="M14.0332 21.3407C13.9734 21.3408 13.9142 21.3287 13.8592 21.3051C13.8042 21.2814 13.7546 21.2469 13.7135 21.2034C13.6724 21.16 13.6405 21.1086 13.6199 21.0524C13.5994 20.9962 13.5905 20.9364 13.5938 20.8767L13.7599 17.9354H11.6715C11.6019 17.9353 11.5333 17.9188 11.4714 17.887C11.4095 17.8553 11.356 17.8093 11.3153 17.7528C11.2746 17.6964 11.2479 17.631 11.2374 17.5623C11.227 17.4935 11.2329 17.4232 11.2549 17.3571L12.9303 12.3314C12.9595 12.244 13.0155 12.168 13.0902 12.1141C13.165 12.0603 13.2548 12.0313 13.3469 12.0313H16.2302C16.3028 12.0312 16.3743 12.0493 16.4383 12.0837C16.5023 12.1181 16.5567 12.1678 16.5968 12.2284C16.6368 12.289 16.6612 12.3585 16.6678 12.4309C16.6744 12.5032 16.6629 12.5761 16.6344 12.6429L15.4538 15.4111H17.3287C17.4079 15.411 17.4857 15.4323 17.5537 15.4729C17.6218 15.5134 17.6777 15.5715 17.7154 15.6412C17.7531 15.7108 17.7713 15.7894 17.7681 15.8685C17.7648 15.9477 17.7402 16.0245 17.6969 16.0908L14.4014 21.1438C14.3612 21.2046 14.3065 21.2544 14.2422 21.2888C14.1779 21.3232 14.1061 21.341 14.0332 21.3407ZM12.2814 17.0566H14.2257C14.2855 17.0565 14.3447 17.0686 14.3997 17.0922C14.4547 17.1158 14.5043 17.1504 14.5454 17.1939C14.5866 17.2373 14.6184 17.2887 14.639 17.3449C14.6595 17.4011 14.6684 17.4609 14.6651 17.5206L14.5649 19.2839L16.518 16.2894H14.7885C14.7159 16.2894 14.6444 16.2714 14.5804 16.237C14.5165 16.2026 14.462 16.1529 14.422 16.0923C14.3819 16.0317 14.3575 15.9621 14.3509 15.8898C14.3444 15.8174 14.3558 15.7446 14.3843 15.6778L15.5654 12.9096H13.6655L12.2814 17.0566Z" fill="white"/>
</svg>
