<svg width="19" height="23" viewBox="0 0 19 23" fill="none" xmlns="http://www.w3.org/2000/svg">
<path d="M18.7587 7.34667L12.5827 5.58216V2.49858H16.5012V3.20851H15.9171C15.7334 3.20851 15.5845 3.35735 15.5845 3.54108V4.91623C15.5845 5.09995 15.7334 5.24879 15.9171 5.24879H17.7506C17.9343 5.24879 18.0832 5.09995 18.0832 4.91623V3.54112C18.0832 3.35739 17.9343 3.20856 17.7506 3.20856H17.1664V2.49858H18.6674C18.8332 2.49858 18.9737 2.37639 18.9967 2.21214C19.0198 2.0479 18.9182 1.89184 18.7587 1.84624L12.3493 0.0150965C12.3489 0.0149637 12.3485 0.0148751 12.3482 0.0147866L12.3415 0.0128829C12.3388 0.0121303 12.3363 0.0117319 12.3337 0.0110678C12.3265 0.00920841 12.3194 0.00743756 12.3121 0.00606515C12.3067 0.00504692 12.3015 0.00438285 12.2962 0.00363024C12.2909 0.00287763 12.2857 0.00208075 12.2803 0.00159376C12.273 0.000929695 12.2656 0.000664068 12.2583 0.000486983C12.2555 0.00035417 12.2529 0 12.2501 0H12.243C12.2427 0 12.2423 0 12.242 0H6.75806C6.75748 0 6.75686 0 6.75629 0H6.74978C6.74726 0 6.74478 0.000309898 6.74225 0.000398441C6.73464 0.000575526 6.72702 0.000841153 6.71941 0.00154949C6.71432 0.0019922 6.70932 0.00278909 6.70423 0.00349743C6.69874 0.00429431 6.69325 0.00495837 6.68767 0.00602088C6.6805 0.00739329 6.67346 0.00911987 6.66651 0.010935C6.66381 0.0116433 6.6611 0.0120418 6.6584 0.0127944L6.6515 0.0147866C6.65123 0.0148751 6.65097 0.0149194 6.6507 0.0150079L0.241204 1.84624C0.0817391 1.89184 -0.0197747 2.0479 0.00324631 2.21214C0.0262673 2.37639 0.166784 2.49858 0.332624 2.49858H1.83355V3.20851H1.2493C1.06562 3.20851 0.916738 3.35735 0.916738 3.54108V4.91623C0.916738 5.09995 1.06562 5.24879 1.2493 5.24879H3.0828C3.26648 5.24879 3.41536 5.09995 3.41536 4.91623V3.54112C3.41536 3.35739 3.26648 3.20856 3.0828 3.20856H2.49859V2.49858H6.41721V5.58211L0.241204 7.34667C0.0817391 7.39227 -0.0197747 7.54833 0.00324631 7.71257C0.0262673 7.87682 0.166784 7.99901 0.332624 7.99901H1.83355V8.70894H1.2493C1.06562 8.70894 0.916738 8.85778 0.916738 9.04151V10.4167C0.916738 10.6004 1.06562 10.7492 1.2493 10.7492H3.0828C3.26648 10.7492 3.41536 10.6004 3.41536 10.4167V9.04151C3.41536 8.85778 3.26648 8.70894 3.0828 8.70894H2.49859V7.99901H6.41721V11.2868L5.05707 16.0471C5.05703 16.0473 5.05698 16.0475 5.05689 16.0477L5.05424 16.0569C5.05419 16.0571 5.05415 16.0573 5.0541 16.0574L5.05348 16.0596C5.0534 16.06 5.05326 16.0604 5.05313 16.0607L3.74859 20.6264H3.08271C2.89903 20.6264 2.75014 20.7752 2.75014 20.959V22.0016H2.07058C1.8869 22.0016 1.73801 22.1504 1.73801 22.3342C1.73801 22.5179 1.8869 22.6667 2.07058 22.6667H3.0828H15.9172H16.9293C17.113 22.6667 17.2619 22.5179 17.2619 22.3342C17.2619 22.1504 17.113 22.0016 16.9293 22.0016H16.2498V20.959C16.2498 20.7752 16.1009 20.6264 15.9172 20.6264H15.2513L13.9468 16.061C13.9466 16.0604 13.9464 16.0596 13.9462 16.059L13.9432 16.0484C13.9431 16.0479 13.9429 16.0473 13.9428 16.0468L12.5827 11.2868V7.99896H16.5013V8.7089H15.9172C15.7335 8.7089 15.5846 8.85774 15.5846 9.04146V10.4166C15.5846 10.6003 15.7335 10.7492 15.9172 10.7492H17.7506C17.9343 10.7492 18.0832 10.6003 18.0832 10.4166V9.04151C18.0832 8.85778 17.9343 8.70894 17.7506 8.70894H17.1664V7.99901H18.6674C18.8333 7.99901 18.9738 7.87682 18.9968 7.71257C19.0197 7.54833 18.9181 7.39227 18.7587 7.34667ZM17.418 3.87369V4.58371H16.2497V3.87369H17.418ZM12.5827 0.773506L16.2928 1.83349H12.5827V0.773506ZM2.75023 3.87369V4.58371H1.58187V3.87369H2.75023ZM2.75023 9.37403V10.0841H1.58187V9.37403H2.75023ZM7.08235 0.665131H11.9176V1.83349H7.08235V0.665131ZM11.9176 2.49858V5.21156L7.84806 2.49858H11.9176ZM7.08235 2.78745L11.1518 5.50039H7.08235V2.78745ZM7.08235 6.16552H11.9176V7.33392H7.08235V6.16552ZM6.4297 15.8136L9.5 13.6644L12.5703 15.8136H6.4297ZM12.2166 16.4788L9.49995 17.8371L6.78338 16.4788H12.2166ZM7.80481 11.6659H11.1951L9.49995 12.8525L7.80481 11.6659ZM11.9176 7.99901V10.7119L7.8481 7.99901H11.9176ZM7.08235 8.28783L11.1519 11.0009H7.08235V8.28783ZM2.70707 1.83345L6.41721 0.773462V1.83345H2.70707ZM2.70707 7.33388L6.41721 6.2738V7.33388H2.70707ZM6.94134 11.8734L8.92004 13.2585L5.95201 15.3361L6.94134 11.8734ZM5.58434 16.6228L8.75633 18.2088L4.52697 20.3235L5.58434 16.6228ZM15.0002 21.2917H15.0003C15.0007 21.2917 15.0011 21.2917 15.0015 21.2917H15.5847V22.0017H15.5846H3.41541V21.2917H3.99855C3.99899 21.2917 3.99939 21.2917 3.99978 21.2917C4.00027 21.2917 4.0008 21.2917 4.00129 21.2917H4.00607C4.00665 21.2917 4.00727 21.2917 4.00784 21.2917H7.14007C7.32376 21.2917 7.47264 21.1428 7.47264 20.9591C7.47264 20.7754 7.32376 20.6265 7.14007 20.6265H5.40823L9.49995 18.5807L13.5917 20.6265H8.62276C8.43908 20.6265 8.2902 20.7754 8.2902 20.9591C8.2902 21.1428 8.43908 21.2917 8.62276 21.2917H14.9987C14.9991 21.2917 14.9997 21.2917 15.0002 21.2917ZM14.4729 20.3235L10.2436 18.2088L13.4156 16.6228L14.4729 20.3235ZM13.0479 15.3361L10.0799 13.2585L12.0586 11.8734L13.0479 15.3361ZM12.5827 7.33388V6.27385L16.2928 7.33388H12.5827ZM17.418 9.37403V10.0841H16.2497V9.37403H17.418Z" fill="black"/>
</svg>
