<svg width="41" height="41" viewBox="0 0 41 41" fill="none" xmlns="http://www.w3.org/2000/svg">
<circle cx="20.5" cy="20.5" r="20.5" fill="url(#paint0_linear_991_87)"/>
<path d="M26.9584 17.8628C26.882 17.7102 26.7675 17.6338 26.6148 17.6338H22.1109L26.5767 10.5725C26.653 10.458 26.653 10.3054 26.5767 10.1909C26.5003 10.0764 26.3858 10 26.2332 10H20.1261C19.9735 10 19.859 10.0764 19.7826 10.1909L14.0573 21.6416C13.9809 21.7561 13.9809 21.9087 14.0573 22.0232C14.1336 22.1378 14.2863 22.2141 14.4008 22.2141H18.3322L14.0573 32.4052C13.9809 32.5579 14.0573 32.7488 14.2099 32.8633C14.2481 32.9014 14.3244 32.9014 14.4008 32.9014C14.5153 32.9014 14.6298 32.8633 14.7062 32.7869L26.9203 18.2827C26.9966 18.1682 27.0347 18.0155 26.9584 17.8628ZM15.7367 30.3441L19.2482 21.9469C19.2864 21.8324 19.2864 21.7179 19.2101 21.6034C19.1337 21.5271 19.0192 21.4508 18.9047 21.4508H15.0115L20.3552 10.7634H25.5461L21.0422 17.8246C20.9658 17.9391 20.9658 18.0918 21.0422 18.2063C21.1186 18.3208 21.2331 18.3972 21.3857 18.3972H25.8133L15.7367 30.3441Z" fill="black"/>
<defs>
<linearGradient id="paint0_linear_991_87" x1="20.5" y1="0" x2="20.5" y2="41" gradientUnits="userSpaceOnUse">
<stop stop-color="#D1DD06"/>
<stop offset="1" stop-color="#B8E806"/>
</linearGradient>
</defs>
</svg>
