<svg width="107" height="185" viewBox="0 0 107 185" fill="none" xmlns="http://www.w3.org/2000/svg">
<g opacity="0.3">
<path d="M69.3675 101.961V24.2699C69.3675 10.8658 58.5017 0 45.0976 0C31.6935 0 20.8277 10.8658 20.8277 24.2699V101.927C-0.149787 115.311 -6.3061 143.166 7.07772 164.144C11.1421 170.514 16.7434 175.76 23.3662 179.398C29.9889 183.037 37.4204 184.951 44.9768 184.966L45.2183 185C70.1019 184.953 90.2359 164.744 90.1893 139.86C90.1751 132.304 88.2606 124.873 84.6221 118.25C80.9835 111.627 75.7378 106.026 69.3675 101.961ZM26.1405 173.007C7.87421 162.461 1.61612 139.104 12.162 120.839C15.5139 115.033 20.3349 110.212 26.1405 106.86C26.6669 106.556 27.1036 106.118 27.4065 105.591C27.7095 105.064 27.8677 104.467 27.8654 103.859V24.2699C27.8654 14.6767 35.6423 6.89977 45.2356 6.89977C54.8289 6.89977 62.6057 14.6767 62.6057 24.2699V103.859C62.6034 104.467 62.7617 105.064 63.0646 105.591C63.3675 106.118 63.8043 106.556 64.3307 106.86C82.597 117.406 88.8551 140.763 78.3092 159.029C67.7633 177.295 44.4063 183.554 26.1405 173.007Z" fill="white"/>
<path d="M48.6691 115.14V62.805C48.6691 61.89 48.3056 61.0125 47.6586 60.3655C47.0116 59.7185 46.1341 59.3551 45.2192 59.3551C44.3042 59.3551 43.4267 59.7185 42.7797 60.3655C42.1328 61.0125 41.7693 61.89 41.7693 62.805V115.14C28.7369 117.009 19.687 129.088 21.556 142.121C23.243 153.884 33.3356 162.608 45.2192 162.576C58.3848 162.612 69.0872 151.968 69.1238 138.803C69.1566 126.919 60.4323 116.827 48.6691 115.14ZM45.2192 155.641C35.864 155.641 28.2802 148.058 28.2802 138.702C28.2992 129.355 35.8717 121.782 45.2192 121.763C54.5744 121.763 62.1581 129.347 62.1581 138.702C62.1581 148.058 54.574 155.641 45.2192 155.641ZM103.005 23.7178H81.4429C80.528 23.7178 79.6505 24.0812 79.0035 24.7282C78.3565 25.3752 77.9931 26.2527 77.9931 27.1677C77.9931 28.0826 78.3565 28.9601 79.0035 29.6071C79.6505 30.2541 80.528 30.6175 81.4429 30.6175H103.005C103.92 30.6175 104.797 30.2541 105.444 29.6071C106.091 28.9601 106.455 28.0826 106.455 27.1677C106.455 26.2527 106.091 25.3752 105.444 24.7282C104.797 24.0812 103.92 23.7178 103.005 23.7178ZM98.4164 40.9672H85.7553C84.8403 40.9672 83.9629 41.3307 83.3159 41.9776C82.6689 42.6246 82.3054 43.5021 82.3054 44.4171C82.3054 45.332 82.6689 46.2095 83.3159 46.8565C83.9629 47.5035 84.8403 47.867 85.7553 47.867H98.4164C99.3313 47.867 100.209 47.5035 100.856 46.8565C101.503 46.2095 101.866 45.332 101.866 44.4171C101.866 43.5021 101.503 42.6246 100.856 41.9776C100.209 41.3307 99.3313 40.9672 98.4164 40.9672ZM103.005 58.2166H81.4429C80.528 58.2166 79.6505 58.5801 79.0035 59.2271C78.3565 59.874 77.9931 60.7515 77.9931 61.6665C77.9931 62.5815 78.3565 63.459 79.0035 64.1059C79.6505 64.7529 80.528 65.1164 81.4429 65.1164H103.005C103.92 65.1164 104.797 64.7529 105.444 64.1059C106.091 63.459 106.455 62.5815 106.455 61.6665C106.455 60.7515 106.091 59.874 105.444 59.2271C104.797 58.5801 103.92 58.2166 103.005 58.2166ZM98.4164 75.466H85.7553C84.8403 75.466 83.9629 75.8295 83.3159 76.4765C82.6689 77.1235 82.3054 78.0009 82.3054 78.9159C82.3054 79.8309 82.6689 80.7084 83.3159 81.3554C83.9629 82.0023 84.8403 82.3658 85.7553 82.3658H98.4164C99.3313 82.3658 100.209 82.0023 100.856 81.3554C101.503 80.7084 101.866 79.8309 101.866 78.9159C101.866 78.0009 101.503 77.1235 100.856 76.4765C100.209 75.8295 99.3313 75.466 98.4164 75.466ZM103.005 92.7154H81.4429C80.528 92.7154 79.6505 93.0789 79.0035 93.7259C78.3565 94.3729 77.9931 95.2504 77.9931 96.1653C77.9931 97.0803 78.3565 97.9578 79.0035 98.6048C79.6505 99.2517 80.528 99.6152 81.4429 99.6152H103.005C103.92 99.6152 104.797 99.2517 105.444 98.6048C106.091 97.9578 106.455 97.0803 106.455 96.1653C106.455 95.2504 106.091 94.3729 105.444 93.7259C104.797 93.0789 103.92 92.7154 103.005 92.7154Z" fill="white"/>
</g>
</svg>
