<svg width="38" height="42" viewBox="0 0 38 42" fill="none" xmlns="http://www.w3.org/2000/svg">
<rect width="38" height="42" rx="2" fill="#1873EB" fill-opacity="0.4"/>
<rect x="8" y="8" width="22" height="25" rx="2" fill="url(#paint0_linear_904_324)"/>
<path d="M15.7993 29.7736V21.5537H14.6383C14.2857 21.5537 14 21.2673 14 20.9154V18.3127C14 17.9621 14.2871 17.6751 14.6383 17.6751H15.7993V15.5824C15.7993 13.6039 17.4039 12 19.3824 12H22.3617C22.7143 12 23 12.2857 23 12.6383V15.2403C23 15.5929 22.7143 15.8786 22.3617 15.8786H20.5984C20.3973 15.8786 20.2316 16.0444 20.2316 16.2454V17.6765L22.3229 17.6751C22.6756 17.6998 22.9612 17.9375 22.9612 18.3127C22.8991 19.1944 22.8131 20.0852 22.7383 20.9683C22.7108 21.2977 22.4336 21.5537 22.1028 21.5537H20.2316V29.7736C20.2316 30.1241 19.9452 30.4112 19.594 30.4112L16.4376 30.4119C16.0857 30.4119 15.7993 30.1256 15.7993 29.7736ZM16.633 29.5796H19.3979V20.72H21.9237L22.1106 18.5067H19.3979V16.2454C19.3979 15.5824 19.9353 15.0449 20.5984 15.0449H22.1663V12.8337H19.3824C17.8638 12.8337 16.633 14.0645 16.633 15.5824V18.5081H14.8337V20.72H16.633V29.5796Z" fill="white"/>
<defs>
<linearGradient id="paint0_linear_904_324" x1="11" y1="-4.5" x2="17" y2="51" gradientUnits="userSpaceOnUse">
<stop stop-color="#1873EB"/>
<stop offset="1" stop-color="#1873EB" stop-opacity="0"/>
</linearGradient>
</defs>
</svg>
