<svg width="66" height="65" viewBox="0 0 66 65" fill="none" xmlns="http://www.w3.org/2000/svg">
<path d="M60.5205 24.1063V58.2771H4.48438V25.227V20.1726L32.3489 3.2373L60.5205 20.0482L60.6405 24.1892L60.5205 24.1063Z" fill="#E57E25"/>
<path d="M58.168 24.1063V58.2771H6.72461V25.227V20.1726L32.3051 3.2373L58.168 20.0482L58.2779 21.2933L58.168 24.1063Z" fill="#F29C1F"/>
<path d="M60.6389 24.1892L32.501 6.72434L4.36309 24.1892C3.48212 24.7361 2.37402 24.7626 1.46791 24.2585C0.561806 23.7544 -2.24385e-05 22.799 6.7213e-10 21.7621C2.17435e-05 20.774 0.510634 19.8561 1.35014 19.3349L32.501 0L63.6518 19.3349C64.4913 19.8561 65.0019 20.774 65.002 21.7621C65.002 22.799 64.4401 23.7544 63.534 24.2585C62.6279 24.7626 61.5198 24.7361 60.6389 24.1892Z" fill="#D25627"/>
<path d="M56.0362 39.2246H8.96582V43.7075H56.0362V39.2246Z" fill="#95A5A5"/>
<path d="M56.0362 34.7402H8.96582V39.2231H56.0362V34.7402Z" fill="#BDC3C7"/>
<path d="M56.0362 30.2598H8.96582V34.7427H56.0362V30.2598Z" fill="#95A5A5"/>
<path d="M56.0362 28.0207V30.2622H8.96582V28.0207C8.96945 26.7843 9.97086 25.7829 11.2073 25.7793H53.7947C55.0312 25.7829 56.0326 26.7843 56.0362 28.0207Z" fill="#BDC3C7"/>
<path d="M56.0362 48.1943H8.96582V58.8205H56.0362V48.1943Z" fill="#35495E"/>
<path d="M32.5006 52.6749C31.8816 52.6749 31.3799 52.1731 31.3799 51.5542V48.192C31.3799 47.5731 31.8816 47.0713 32.5006 47.0713C33.1196 47.0713 33.6213 47.5731 33.6213 48.192V51.5542C33.6213 52.1731 33.1196 52.6749 32.5006 52.6749Z" fill="#95A5A5"/>
<path d="M56.0362 43.707H8.96582V48.1899H56.0362V43.707Z" fill="#BDC3C7"/>
<path d="M62.7605 58.2754H2.24145C1.00353 58.2754 0 59.2789 0 60.5168V62.7583C0 63.9962 1.00353 64.9997 2.24145 64.9997H62.7605C63.9984 64.9997 65.002 63.9962 65.002 62.7583V60.5168C65.002 59.2789 63.9984 58.2754 62.7605 58.2754Z" fill="#3F5C6C"/>
</svg>
