<svg width="62" height="62" viewBox="0 0 62 62" fill="none" xmlns="http://www.w3.org/2000/svg">
<path d="M15.3531 13.6899C13.6834 12.6707 11.4205 13.3372 10.2335 14.789V10.6975C11.9842 8.95789 11.768 5.30656 9.35703 4.22656C7.02037 5.36456 6.72406 8.80229 8.41713 10.6036V14.7739C7.22961 13.336 4.97081 12.6703 3.3097 13.6899C2.92924 16.3508 5.98093 18.5005 8.41713 17.8694V22.0873H10.2335V17.8661C12.6653 18.5047 15.7435 16.3561 15.3531 13.6899Z" fill="#B3E59F"/>
<path d="M20.0403 35.9043H0V45.5915H20.0403V35.9043Z" fill="#FFE09F"/>
<path d="M20.0403 45.5918H0V55.0368H20.0403V45.5918Z" fill="#FFE09F"/>
<path d="M20.0408 35.9043H15.1973V45.5915H20.0408V35.9043Z" fill="#F6D190"/>
<path d="M20.0408 45.5918H15.1973V55.0368H20.0408V45.5918Z" fill="#F6D190"/>
<path d="M20.7588 1.49957C20.7588 0.67132 21.4301 0 22.2582 0H56.1402C56.9684 0 57.6396 0.67132 57.6396 1.49957V23.6038C57.6396 24.432 56.9684 25.1033 56.1402 25.1033H22.2582C21.4301 25.1033 20.7588 24.432 20.7588 23.6038V1.49957Z" fill="#857E87"/>
<path d="M56.1414 0H51.2979C52.1261 0 52.7973 0.67132 52.7973 1.49957V23.6038C52.7973 24.432 52.1261 25.1033 51.2979 25.1033H56.1414C56.9697 25.1033 57.6409 24.432 57.6409 23.6038V1.49957C57.6409 0.67132 56.9697 0 56.1414 0Z" fill="#5D5360"/>
<path d="M43.0331 24.8652H35.3662V30.231H43.0331V24.8652Z" fill="#DFDDE0"/>
<path d="M43.0331 24.8613H40.6113V30.227H43.0331V24.8613Z" fill="#C8C5C9"/>
<path d="M20.7607 23.6019C20.7607 24.4301 21.4321 25.1014 22.2602 25.1014H56.1421C56.9704 25.1014 57.6416 24.4301 57.6416 23.6019V20.0156H20.7607V23.6019Z" fill="#F0EEF0"/>
<path d="M52.7973 20.0176V23.6039C52.7973 24.432 52.1261 25.1033 51.2979 25.1033H56.1414C56.9697 25.1033 57.6409 24.432 57.6409 23.6039V20.0176H52.7973Z" fill="#DFDDE0"/>
<path d="M14.5261 21.4209C14.8641 21.4209 15.1381 21.6978 15.1318 22.0357C15.0517 26.3267 14.0563 30.0788 9.14347 30.0788C4.1145 30.0788 3.22461 26.326 3.15438 22.0346C3.14881 21.6971 3.42247 21.4209 3.76007 21.4209H14.5261Z" fill="#FF8086"/>
<path d="M14.5264 21.4209H10.8937C11.2317 21.4209 11.5057 21.6978 11.4994 22.0358C11.4301 25.741 10.6762 29.042 7.30957 29.875C7.85023 30.0067 8.45726 30.0789 9.14371 30.0789C14.0567 30.0789 15.0519 26.3268 15.1321 22.0358C15.1384 21.6978 14.8643 21.4209 14.5264 21.4209Z" fill="#E5646E"/>
<path d="M61.0906 29.2861H0.909148C0.407474 29.2861 0.000976562 29.6928 0.000976562 30.1943V37.0534H60.1824V60.1815C60.1824 61.3528 61.9988 61.3528 61.9988 60.1815V30.1943C61.9988 29.6928 61.5923 29.2861 61.0906 29.2861Z" fill="#E2A975"/>
<path d="M61.0916 29.2861H56.248C56.7497 29.2861 57.1562 29.6928 57.1562 30.1943V35.2371V37.0534H60.1835V60.1815C60.1835 61.3528 61.9998 61.3528 61.9998 60.1815V30.1943C61.9998 29.6928 61.5933 29.2861 61.0916 29.2861Z" fill="#C38C66"/>
<path d="M20.0413 44.6816H0.000976562V46.498H20.0413V44.6816Z" fill="#E2A975"/>
<path d="M20.0418 44.6816H15.1982V46.498H20.0418V44.6816Z" fill="#C38C66"/>
<path d="M0.000976562 54.126V55.9423V60.1424C0.000976562 61.3297 1.81732 61.3737 1.81732 60.1805V55.9423H18.2249V60.2101C18.2249 61.3741 20.0413 61.3292 20.0413 60.1805V54.126H0.000976562Z" fill="#E2A975"/>
<path d="M15.1982 54.1279V55.9443H18.2255V60.201C18.2255 61.3728 20.0418 61.3371 20.0418 60.1824V54.1279H15.1982Z" fill="#C38C66"/>
<path d="M13.5023 41.7724H6.60015C5.42886 41.7724 5.42886 39.9561 6.60015 39.9561H13.5023C14.6736 39.9561 14.6736 41.7724 13.5023 41.7724Z" fill="#C38C66"/>
<path d="M13.5023 51.2216H6.60015C5.42886 51.2216 5.42886 49.4053 6.60015 49.4053H13.5023C14.6736 49.4053 14.6736 51.2216 13.5023 51.2216Z" fill="#C38C66"/>
<path d="M53.0496 9.43066V35.5254C53.0496 35.5254 47.1162 33.0431 47.1162 22.3872C47.1162 11.7314 53.0496 9.43066 53.0496 9.43066Z" fill="#B3E59F"/>
<path d="M53.101 40.5227C53.0539 44.6533 52.3522 47.2722 47.7222 47.2722H28.1057C28.1057 47.2722 27.3792 40.4912 36.8241 40.4912C43.8473 40.4912 53.0501 40.4912 53.0501 40.4912" fill="#B3E59F"/>
<path d="M53.2798 59.2709H41.6552V48.1798H47.7225C49.8074 48.1798 51.3145 47.6772 52.3302 46.6432C54.1101 44.8311 54.0559 41.797 53.9872 37.9554C53.9731 37.1739 53.9587 9.43121 53.9587 9.43121C53.9587 8.25991 52.1424 8.25991 52.1424 9.43121C52.1424 9.43121 52.157 37.1985 52.1711 37.988C52.2322 41.4038 52.2806 44.1019 51.0344 45.3704C50.378 46.0387 49.2947 46.3635 47.7225 46.3635H28.106C26.9347 46.3635 26.9347 48.1798 28.106 48.1798H39.8389V49.8145H36.2667C35.0954 49.8145 35.0954 51.6309 36.2667 51.6309H39.8389V59.2709H28.2143C27.043 59.2709 27.043 61.0872 28.2143 61.0872H53.2798C54.4511 61.0872 54.4511 59.2709 53.2798 59.2709Z" fill="#95D6A4"/>
</svg>
