<svg width="72" height="62" viewBox="0 0 72 62" fill="none" xmlns="http://www.w3.org/2000/svg">
<path d="M2.91069 26.8085H9.95749V26.0425C9.95749 23.9308 11.6755 22.2128 13.7873 22.2128C15.899 22.2128 17.6171 23.9308 17.6171 26.0425V26.8085H24.0871L24.3837 23.7447H23.3875C20.628 23.7447 18.383 21.4998 18.383 18.7405V5.0043C18.383 2.24487 20.628 0 23.3875 0H48.6129C51.3722 0 53.617 2.24487 53.617 5.0043V18.7405C53.617 21.4998 51.3722 23.7447 48.6129 23.7447H47.6165L47.9131 26.8085H58.2953C57.3001 25.8347 56.6809 24.4778 56.6809 22.9787V18.383C56.6809 17.96 57.0237 17.617 57.4468 17.617H60.5106L56.8341 12.7149C56.5802 12.3765 56.6488 11.8964 56.9872 11.6425C57.3256 11.3887 57.8057 11.4575 58.0596 11.7957L61.2766 16.0851V12.2553C61.2766 11.8323 61.6194 11.4894 62.0426 11.4894C62.4657 11.4894 62.8085 11.8323 62.8085 12.2553V16.0851L66.0255 11.7957C66.2794 11.4575 66.7593 11.3887 67.0979 11.6425C67.4363 11.8964 67.5049 12.3765 67.2511 12.7149L63.5745 17.617H66.6383C67.0614 17.617 67.4043 17.96 67.4043 18.383V22.9787C67.4043 24.4778 66.7851 25.8347 65.7898 26.8085H69.0894C70.6944 26.8085 72 28.1141 72 29.7191V31.5574C72 33.1624 70.6944 34.4681 69.0894 34.4681H65.8723V60.5106C65.8723 60.9337 65.5295 61.2766 65.1064 61.2766H60.5106C60.0875 61.2766 59.7447 60.9337 59.7447 60.5106V44.4255H50.5532C50.1301 44.4255 49.7873 44.0827 49.7873 43.6595V42.3444C48.6634 43.6191 47.0203 44.4255 45.1915 44.4255H39.0639V52.851H44.4256C44.8487 52.851 45.1915 53.1939 45.1915 53.617V55.2497C46.5108 55.591 47.4894 56.7882 47.4894 58.2127C47.4894 59.9021 46.1149 61.2766 44.4256 61.2766C42.7362 61.2766 41.3617 59.9021 41.3617 58.2127C41.3617 56.7882 42.3403 55.5912 43.6596 55.2497V54.3829H27.5745V55.2497C28.8938 55.591 29.8724 56.7882 29.8724 58.2127C29.8724 59.9021 28.4979 61.2766 26.8085 61.2766C25.1192 61.2766 23.7447 59.9021 23.7447 58.2127C23.7447 56.7882 24.7233 55.5912 26.0426 55.2497V53.617C26.0426 53.1939 26.3854 52.851 26.8085 52.851H32.1702V44.4255H26.8085C24.9797 44.4255 23.3366 43.6191 22.2128 42.3444V43.6595C22.2128 44.0827 21.87 44.4255 21.4468 44.4255H12.2554V60.5106C12.2554 60.9337 11.9125 61.2766 11.4894 61.2766H6.89367C6.47055 61.2766 6.12771 60.9337 6.12771 60.5106V34.4681H2.91069C1.3057 34.4681 5.34058e-05 33.1624 5.34058e-05 31.5574V29.7191C5.34058e-05 28.1141 1.3057 26.8085 2.91069 26.8085ZM42.8936 58.2127C42.8936 59.0574 43.5809 59.7446 44.4256 59.7446C45.2703 59.7446 45.9575 59.0574 45.9575 58.2127C45.9575 57.636 45.6367 57.133 45.1645 56.8717C45.0794 57.2018 44.7823 57.4468 44.4256 57.4468C44.0688 57.4468 43.7716 57.2018 43.6866 56.8717C43.2144 57.133 42.8936 57.636 42.8936 58.2127ZM25.2766 58.2127C25.2766 59.0574 25.9638 59.7446 26.8085 59.7446C27.6532 59.7446 28.3405 59.0574 28.3405 58.2127C28.3405 57.636 28.0197 57.133 27.5475 56.8717C27.4624 57.2018 27.1653 57.4468 26.8085 57.4468C26.4518 57.4468 26.1546 57.2018 26.0695 56.8717C25.5974 57.133 25.2766 57.636 25.2766 58.2127ZM16.0851 26.0425C16.0851 24.7755 15.0543 23.7447 13.7873 23.7447C12.5202 23.7447 11.4894 24.7755 11.4894 26.0425V26.8085H16.0851V26.0425ZM12.2554 37.5319C14.4696 37.5319 20.6035 37.5319 23.0494 37.5319L23.346 34.4681H12.2554V37.5319ZM35.6171 31.4042C37.5175 31.4042 39.0639 32.9506 39.0639 34.851V37.5319H47.4117L45.7021 19.8649C45.4512 17.2734 43.2988 15.3191 40.695 15.3191H31.3052C28.7015 15.3191 26.5489 17.2734 26.298 19.8649L24.5883 37.5319H32.1702V34.851C32.1702 32.9506 33.7166 31.4042 35.6171 31.4042ZM59.7447 37.5319V34.4681H48.6542L48.9507 37.5319C51.3942 37.5319 57.5214 37.5319 59.7447 37.5319ZM48.6129 22.2128C50.5275 22.2128 52.0851 20.6551 52.0851 18.7405V5.0043C52.0851 3.08956 50.5275 1.53191 48.6129 1.53191H23.3875C21.4727 1.53191 19.9149 3.08956 19.9149 5.0043V18.7405C19.9149 20.6551 21.4727 22.2128 23.3875 22.2128H24.532L24.7734 19.7174C25.1006 16.3366 27.9086 13.7872 31.3053 13.7872H40.6952C44.0917 13.7872 46.8997 16.3366 47.227 19.7174L47.4682 22.2128H48.6129ZM65.8723 22.9787V19.1489H62.0436C62.0433 19.1489 62.043 19.1491 62.0427 19.1491H62.0423H62.0419C62.0416 19.1491 62.0413 19.1489 62.041 19.1489H58.2128V22.9787C58.2128 25.0905 59.9308 26.8085 62.0426 26.8085C64.1543 26.8085 65.8723 25.0905 65.8723 22.9787ZM70.4681 31.5574V29.7191C70.4681 28.9588 69.8497 28.3404 69.0894 28.3404H48.0612L48.506 32.9361C55.3734 32.9361 62.2359 32.9361 69.0892 32.9361C69.8497 32.9361 70.4681 32.3177 70.4681 31.5574ZM61.2766 59.7446H64.3404V34.4681H61.2766V59.7446ZM51.3192 42.8936H59.7447V39.0638H51.3192V42.8936ZM45.1915 42.8936C47.4647 42.8936 49.3577 41.2345 49.7234 39.0638H39.0639V42.8936H45.1915ZM37.5319 52.851C37.5319 50.907 37.5319 36.8891 37.5319 34.851C37.5319 33.7951 36.673 32.9361 35.6171 32.9361C34.5611 32.9361 33.7022 33.7951 33.7022 34.851V52.851H37.5319ZM26.8085 42.8936H32.1702V39.0638H22.2767C22.6424 41.2345 24.5353 42.8936 26.8085 42.8936ZM20.6809 42.8936V39.0638H12.2554V42.8936H20.6809ZM7.65962 59.7446H10.7234C10.7234 56.0573 10.7234 37.9179 10.7234 34.4681H7.65962V59.7446ZM1.53197 31.5574C1.53197 32.3177 2.15041 32.9361 2.91069 32.9361C6.71811 32.9361 19.6358 32.9361 23.4941 32.9361L23.9388 28.3404H2.91054C2.15025 28.3404 1.53181 28.9588 1.53181 29.7191V31.5574H1.53197Z" fill="white"/>
<path d="M10.3384 16.8613C9.70383 16.8613 9.18943 16.347 9.18943 15.7124C9.18943 15.0779 9.70383 14.5635 10.3384 14.5635C10.9729 14.5635 11.4873 15.0779 11.4873 15.7124C11.4873 16.347 10.9729 16.8613 10.3384 16.8613Z" fill="white"/>
<path d="M67.02 7.66115C66.3855 7.66115 65.8711 7.14676 65.8711 6.51222C65.8711 5.87768 66.3855 5.36328 67.02 5.36328C67.6545 5.36328 68.1689 5.87768 68.1689 6.51222C68.1689 7.14676 67.6545 7.66115 67.02 7.66115Z" fill="white"/>
</svg>
