<svg width="18" height="20" viewBox="0 0 18 20" fill="none" xmlns="http://www.w3.org/2000/svg">
<path d="M4.06451 14.2641L4.1705 14.1705L6.75 11.5919L8.2045 13.0455C8.61005 13.451 9.24818 13.4822 9.68951 13.1391L9.7955 13.0455L12.9375 9.90438L13.8295 10.7955C14.5074 11.4734 15.6456 11.0436 15.7433 10.1278L15.75 10L15.748 6.55819L15.7379 6.45968L15.7098 6.32593L15.6826 6.24063L15.6446 6.14888L15.5858 6.0392L15.5105 5.93085L15.4205 5.82947C15.3807 5.78969 15.3386 5.75348 15.2947 5.72088L15.1696 5.64026L15.0428 5.58013L14.9242 5.54033L14.792 5.5124L14.7254 5.50446L14.625 5.5H11.25C10.2913 5.5 9.79039 6.6087 10.3689 7.32534L10.4545 7.4205L11.3456 8.3125L9 10.6581L7.5455 9.2045C7.13995 8.79896 6.50182 8.76776 6.06049 9.11092L5.9545 9.2045L2.5795 12.5795C2.14017 13.0188 2.14017 13.7312 2.5795 14.1705C2.98505 14.576 3.62318 14.6072 4.06451 14.2641Z" fill="#EF4444"/>
</svg>
