<svg width="46" height="50" viewBox="0 0 46 50" fill="none" xmlns="http://www.w3.org/2000/svg">
<g filter="url(#filter0_d_967_521)">
<rect x="4" width="38" height="42" rx="2" fill="url(#paint0_linear_967_521)" fill-opacity="0.4" shape-rendering="crispEdges"/>
</g>
<g filter="url(#filter1_d_967_521)">
<rect x="12" y="8" width="22" height="25" rx="2" fill="url(#paint1_linear_967_521)"/>
</g>
<path d="M26.6138 13H19.3862C16.9676 13 15 14.9676 15 17.3862V24.6138C15 27.0324 16.9676 29 19.3862 29H26.6138C29.0324 29 31 27.0324 31 24.6138V17.3862C31 14.9676 29.0324 13 26.6138 13ZM30.0551 24.6138C30.0551 26.5114 28.5114 28.0551 26.6138 28.0551H19.3862C17.4886 28.0551 15.9449 26.5114 15.9449 24.6138V17.3862C15.9449 15.4886 17.4886 13.9449 19.3862 13.9449H26.6138C28.5114 13.9449 30.0551 15.4886 30.0551 17.3862V24.6138Z" fill="white"/>
<path d="M23.0008 16.6113C20.581 16.6113 18.6123 18.58 18.6123 20.9998C18.6123 23.4196 20.5809 25.3883 23.0008 25.3883C25.4206 25.3883 27.3893 23.4196 27.3893 20.9998C27.3893 18.58 25.4206 16.6113 23.0008 16.6113ZM23.0008 24.4434C21.102 24.4434 19.5571 22.8986 19.5571 20.9998C19.5571 19.101 21.102 17.5561 23.0008 17.5561C24.8996 17.5561 26.4444 19.101 26.4444 20.9998C26.4444 22.8986 24.8996 24.4434 23.0008 24.4434Z" fill="white"/>
<path d="M27.6497 15.0156C26.9145 15.0156 26.3164 15.6138 26.3164 16.349C26.3164 17.0842 26.9145 17.6823 27.6497 17.6823C28.3849 17.6823 28.983 17.0841 28.983 16.3489C28.983 15.6138 28.3849 15.0156 27.6497 15.0156ZM27.6497 16.7374C27.4356 16.7374 27.2613 16.5631 27.2613 16.3489C27.2613 16.1348 27.4356 15.9605 27.6497 15.9605C27.8639 15.9605 28.0382 16.1348 28.0382 16.3489C28.0382 16.5631 27.8639 16.7374 27.6497 16.7374Z" fill="white"/>
<defs>
<filter id="filter0_d_967_521" x="0" y="0" width="46" height="50" filterUnits="userSpaceOnUse" color-interpolation-filters="sRGB">
<feFlood flood-opacity="0" result="BackgroundImageFix"/>
<feColorMatrix in="SourceAlpha" type="matrix" values="0 0 0 0 0 0 0 0 0 0 0 0 0 0 0 0 0 0 127 0" result="hardAlpha"/>
<feOffset dy="4"/>
<feGaussianBlur stdDeviation="2"/>
<feComposite in2="hardAlpha" operator="out"/>
<feColorMatrix type="matrix" values="0 0 0 0 0 0 0 0 0 0 0 0 0 0 0 0 0 0 0.25 0"/>
<feBlend mode="normal" in2="BackgroundImageFix" result="effect1_dropShadow_967_521"/>
<feBlend mode="normal" in="SourceGraphic" in2="effect1_dropShadow_967_521" result="shape"/>
</filter>
<filter id="filter1_d_967_521" x="8" y="8" width="30" height="33" filterUnits="userSpaceOnUse" color-interpolation-filters="sRGB">
<feFlood flood-opacity="0" result="BackgroundImageFix"/>
<feColorMatrix in="SourceAlpha" type="matrix" values="0 0 0 0 0 0 0 0 0 0 0 0 0 0 0 0 0 0 127 0" result="hardAlpha"/>
<feOffset dy="4"/>
<feGaussianBlur stdDeviation="2"/>
<feComposite in2="hardAlpha" operator="out"/>
<feColorMatrix type="matrix" values="0 0 0 0 0 0 0 0 0 0 0 0 0 0 0 0 0 0 0.25 0"/>
<feBlend mode="normal" in2="BackgroundImageFix" result="effect1_dropShadow_967_521"/>
<feBlend mode="normal" in="SourceGraphic" in2="effect1_dropShadow_967_521" result="shape"/>
</filter>
<linearGradient id="paint0_linear_967_521" x1="23" y1="-6.08368e-09" x2="23.0326" y2="59.7243" gradientUnits="userSpaceOnUse">
<stop stop-color="#545BCA"/>
<stop offset="0.310417" stop-color="#8E42B3"/>
<stop offset="0.732292" stop-color="#D8416C"/>
<stop offset="0.883333" stop-color="#EF7D43"/>
<stop offset="1" stop-color="#4E6FE4"/>
</linearGradient>
<linearGradient id="paint1_linear_967_521" x1="23" y1="8" x2="23.02" y2="43.5502" gradientUnits="userSpaceOnUse">
<stop stop-color="#545BCA"/>
<stop offset="0.310417" stop-color="#8E42B3"/>
<stop offset="0.732292" stop-color="#D8416C"/>
<stop offset="0.883333" stop-color="#EF7D43"/>
<stop offset="1" stop-color="#4E6FE4"/>
</linearGradient>
</defs>
</svg>
