<svg width="51" height="51" viewBox="0 0 51 51" fill="none" xmlns="http://www.w3.org/2000/svg">
<path d="M43.5313 7.46871C38.7149 2.6525 32.3113 0 25.5 0C21.7469 0 18.1315 0.796775 14.7543 2.36811C14.3803 2.54213 14.2181 2.98649 14.3922 3.36062C14.5663 3.73465 15.0104 3.89712 15.3847 3.7228C18.563 2.2439 21.9663 1.49414 25.5 1.49414C38.7369 1.49414 49.5059 12.2631 49.5059 25.5C49.5059 38.7369 38.7369 49.5059 25.5 49.5059C12.2631 49.5059 1.49414 38.7369 1.49414 25.5C1.49414 17.344 5.58131 9.81591 12.4274 5.36237C12.7732 5.13735 12.8712 4.67457 12.6462 4.32872C12.4212 3.98288 11.9585 3.88496 11.6127 4.10988C4.34118 8.84023 0 16.8365 0 25.5C0 32.3113 2.6525 38.715 7.46871 43.5313C12.2851 48.3475 18.6887 51 25.5 51C32.3113 51 38.7149 48.3475 43.5313 43.5313C48.3475 38.715 51 32.3113 51 25.5C51 18.6887 48.3475 12.285 43.5313 7.46871Z" fill="#04103B"/>
<path d="M42.998 24.7414H45.8671C46.2889 24.7505 46.6519 24.36 46.6122 23.9399C46.2434 18.8832 44.0588 14.1191 40.4607 10.525C36.8623 6.93074 32.0952 4.75149 27.0374 4.38871C26.6173 4.34906 26.2281 4.71254 26.2368 5.13369L26.236 8.92771C26.2359 9.34637 25.8952 9.68703 25.4758 9.68703C25.057 9.68703 24.7164 9.34637 24.7163 8.92771L24.7156 5.13747C24.7243 4.71533 24.334 4.35255 23.9132 4.39259C18.8668 4.76722 14.1122 6.95136 10.5253 10.5428C6.93807 14.1345 4.75971 18.8922 4.39166 23.9398C4.35191 24.3599 4.71509 24.7504 5.13673 24.7413H7.90667C8.32553 24.7413 8.66619 25.0821 8.66619 25.5008C8.66619 25.9196 8.32553 26.2603 7.90667 26.2603H5.13673C4.71499 26.2513 4.35191 26.6417 4.39166 27.0618C4.75971 32.1095 6.93817 36.8674 10.5257 40.4593C14.1129 44.0507 18.8677 46.2347 23.9143 46.6091C24.3344 46.6494 24.7258 46.2862 24.7167 45.8642V43.0703C24.7167 42.6516 25.0573 42.3108 25.4762 42.3108C25.895 42.3108 26.2357 42.6516 26.2357 43.0703V45.8678C26.2262 46.289 26.6174 46.6526 27.0362 46.6129C30.7302 46.3483 34.3025 45.11 37.3668 43.0323C37.7084 42.8007 37.7975 42.3361 37.566 41.9946C37.3345 41.6532 36.8698 41.564 36.5283 41.7956C33.9029 43.5757 30.8764 44.6927 27.7297 45.0487V43.0703C27.7297 41.8276 26.7188 40.8167 25.4761 40.8167C24.2333 40.8167 23.2224 41.8276 23.2224 43.0703V45.0429C14.2203 43.9977 6.99007 36.7583 5.95692 27.7545H7.90657C9.1493 27.7545 10.1602 26.7435 10.1602 25.5008C10.1602 24.2581 9.1493 23.2472 7.90657 23.2472H5.95702C6.99007 14.2439 14.22 7.00455 23.2216 5.95895L23.2222 8.92801C23.2225 10.1703 24.2334 11.1811 25.4766 11.1811C26.719 11.1811 27.7299 10.1703 27.7302 8.92801L27.7308 5.95307C36.7593 6.97736 44.0117 14.2201 45.0469 23.2472H42.998C41.7552 23.2472 40.7443 24.2581 40.7443 25.5008C40.7443 26.7435 41.7552 27.7545 42.998 27.7545H45.0471C44.5288 32.2916 42.4451 36.5052 39.1268 39.6919C38.8292 39.9776 38.8196 40.4505 39.1054 40.7481C39.3913 41.0456 39.8641 41.0552 40.1617 40.7694C43.9414 37.1397 46.2322 32.2715 46.6122 27.0618C46.6519 26.6417 46.2888 26.2513 45.8671 26.2603H42.998C42.5791 26.2603 42.2384 25.9196 42.2384 25.5008C42.2384 25.0821 42.5792 24.7414 42.998 24.7414Z" fill="#04103B"/>
<path d="M29.0859 19.5234C29.0859 17.5461 27.4773 15.9375 25.5 15.9375C23.5227 15.9375 21.9141 17.5461 21.9141 19.5234C21.9141 21.5008 23.5227 23.1094 25.5 23.1094C27.4773 23.1094 29.0859 21.5008 29.0859 19.5234ZM23.4082 19.5234C23.4082 18.3701 24.3465 17.4316 25.5 17.4316C26.6535 17.4316 27.5918 18.3701 27.5918 19.5234C27.5918 20.6768 26.6535 21.6152 25.5 21.6152C24.3465 21.6152 23.4082 20.6768 23.4082 19.5234Z" fill="#04103B"/>
<path d="M36.9551 18.8262C36.9551 17.0686 35.5252 15.6387 33.7676 15.6387C32.01 15.6387 30.5801 17.0686 30.5801 18.8262C30.5801 20.5838 32.01 22.0137 33.7676 22.0137C35.5252 22.0137 36.9551 20.5838 36.9551 18.8262ZM32.0742 18.8262C32.0742 17.8924 32.8338 17.1328 33.7676 17.1328C34.7013 17.1328 35.4609 17.8924 35.4609 18.8262C35.4609 19.7599 34.7013 20.5195 33.7676 20.5195C32.8338 20.5195 32.0742 19.7599 32.0742 18.8262Z" fill="#04103B"/>
<path d="M17.1328 22.0137C18.8904 22.0137 20.3203 20.5838 20.3203 18.8262C20.3203 17.0686 18.8904 15.6387 17.1328 15.6387C15.3752 15.6387 13.9453 17.0686 13.9453 18.8262C13.9453 20.5838 15.3752 22.0137 17.1328 22.0137ZM17.1328 17.1328C18.0666 17.1328 18.8262 17.8924 18.8262 18.8262C18.8262 19.7599 18.0666 20.5195 17.1328 20.5195C16.1991 20.5195 15.4395 19.7599 15.4395 18.8262C15.4395 17.8924 16.1991 17.1328 17.1328 17.1328Z" fill="#04103B"/>
<path d="M13.3298 27.3427C13.4532 26.9489 13.2342 26.5298 12.8404 26.4063C12.4466 26.2826 12.0275 26.502 11.9041 26.8956C11.5714 27.8079 11.6626 29.1692 11.653 30.1318C11.653 31.4776 12.778 32.5723 14.1607 32.5723H19.2248C19.2564 34.0605 20.476 35.2617 21.9716 35.2617H29.0257C30.5214 35.2617 31.741 34.0605 31.7726 32.5723H36.737C38.1199 32.5723 39.2449 31.4776 39.2449 30.1318V28.5381C39.2449 25.4897 36.7769 23.0098 33.7432 23.0098H33.6937C31.9149 23.0098 30.2543 23.8987 29.2428 25.3358C28.2029 24.5634 26.9158 24.1055 25.5237 24.1055H25.4738C24.0526 24.1055 22.7414 24.5831 21.6902 25.3852C20.6835 23.9171 19.0109 23.0098 17.2042 23.0098H17.1548C16.1977 23.0098 15.2516 23.2661 14.4189 23.7509C14.0623 23.9585 13.9416 24.4159 14.1492 24.7725C14.3568 25.129 14.8143 25.2497 15.1707 25.0421C15.7753 24.69 16.4614 24.5039 17.1547 24.5039H17.2041C18.6017 24.5039 19.8876 25.2566 20.5971 26.4527C19.7387 27.5231 19.2234 28.8801 19.2234 30.3559V31.0781H14.1608C13.6019 31.0781 13.1472 30.6536 13.1472 30.1318C13.1659 29.3639 13.0609 28.0672 13.3298 27.3427ZM33.6937 24.5039H33.7432C35.953 24.5039 37.7507 26.3136 37.7507 28.5381V30.1318C37.7507 30.6536 37.296 31.0781 36.7371 31.0781H31.7742V30.3559C31.7742 28.8475 31.2371 27.4622 30.3441 26.3811C31.0626 25.2282 32.33 24.5039 33.6937 24.5039ZM25.5237 25.5996C28.1463 25.5996 30.28 27.7332 30.28 30.3559V32.5134C30.28 33.2049 29.7174 33.7676 29.0258 33.7676H21.9717C21.2802 33.7676 20.7175 33.205 20.7175 32.5134V30.3559C20.7175 27.7332 22.8512 25.5996 25.4739 25.5996H25.5237Z" fill="#04103B"/>
</svg>
