<svg width="49" height="50" viewBox="0 0 49 50" fill="none" xmlns="http://www.w3.org/2000/svg">
<path d="M41.6486 8.50033L38.2829 5.1349C38.0754 4.92612 37.7564 4.87474 37.4939 5.00793L31.9961 7.79281C30.8534 7.17366 29.6475 6.67788 28.3993 6.31398L26.3854 0.45361C26.2886 0.181012 26.0307 -0.000611222 25.7414 4.32751e-05H20.9695C20.6789 -0.00322921 20.4181 0.179375 20.3209 0.45361L18.4114 6.3323C17.1659 6.69489 15.9642 7.19395 14.828 7.81998L9.26249 5.09825C9.00102 4.97095 8.68718 5.02396 8.48233 5.23013L5.10283 8.6093C4.89666 8.82103 4.85085 9.14173 4.9896 9.40288L7.78365 14.8961C7.16548 16.0375 6.67133 17.2418 6.3094 18.4883L0.45361 20.4979C0.181012 20.5945 -0.000938391 20.8527 4.3351e-05 21.1419V25.9181C-0.00322913 26.2091 0.179048 26.4699 0.45361 26.5667L6.31856 28.4766C6.68115 29.7244 7.18151 30.9277 7.81081 32.0645L5.08909 37.63C4.96179 37.8912 5.0148 38.205 5.22064 38.4102L8.59556 41.7802C8.80303 41.989 9.1221 42.0404 9.38455 41.9072L14.8777 39.1177C16.0202 39.7427 17.2277 40.2405 18.4791 40.6011L20.493 46.4523C20.5899 46.7249 20.8477 46.9065 21.137 46.9059H25.8998C26.1904 46.9092 26.4512 46.7266 26.5484 46.4523L28.4582 40.5874C29.7476 40.2107 30.9895 39.6868 32.1594 39.0271L40.9454 47.7721C41.883 48.7143 43.1543 49.2487 44.4833 49.2598C45.6846 49.2686 46.8395 48.7964 47.6903 47.9492C49.5046 46.1346 49.4231 43.1092 47.5133 41.1997L38.7865 32.4863C38.8363 32.4415 38.8791 32.3895 38.9135 32.3322C39.6236 31.0965 40.1813 29.779 40.5736 28.4085L46.434 26.4038C46.7066 26.3069 46.8885 26.049 46.8876 25.7594V21.0104C46.8908 20.7198 46.7086 20.459 46.434 20.3618L40.5553 18.4294C40.1917 17.1822 39.6914 15.9786 39.0631 14.8414L41.7848 9.28049C41.9111 9.01836 41.8564 8.70453 41.6486 8.50033ZM46.7197 47.0103C46.1166 47.6052 45.2991 47.9328 44.4519 47.9174C43.4825 47.906 42.5568 47.5133 41.8754 46.8241L26.73 31.6561C27.5217 31.3266 28.2612 30.8831 28.9255 30.3409L42.4288 43.8442C42.7037 44.1004 43.134 44.085 43.3906 43.8101C43.6341 43.549 43.6341 43.1438 43.3906 42.8827L29.905 29.3974C30.5366 28.7047 31.054 27.9163 31.4382 27.0615L46.5564 42.184C47.9289 43.474 48.0022 45.6303 46.7197 47.0103ZM33.5384 27.2383L31.9372 25.637C33.1693 20.8713 30.3042 16.009 25.5385 14.7773C23.9739 14.3725 22.3289 14.4009 20.779 14.8597C20.4187 14.9671 20.2142 15.346 20.3212 15.706C20.3536 15.815 20.4128 15.9135 20.4933 15.9937L24.5483 20.0489L24.7571 22.4846L22.4889 24.7525L20.0532 24.544L15.9708 20.4616C15.705 20.1962 15.2744 20.1965 15.0086 20.4626C14.9317 20.5398 14.8745 20.6344 14.8414 20.7384C13.3623 25.4279 15.9645 30.4293 20.6543 31.9084C22.1453 32.3787 23.7341 32.4484 25.2604 32.11L26.839 33.7109C21.1812 35.6001 15.0633 32.5452 13.1744 26.8878C11.2859 21.23 14.3404 15.1121 19.9979 13.2232C25.6557 11.3346 31.7736 14.3892 33.6621 20.0466C34.4443 22.3874 34.4001 24.9253 33.5384 27.2383ZM28.6533 28.7531C25.7071 31.7055 20.925 31.7108 17.9725 28.7645C16.2738 27.0694 15.4818 24.6677 15.8392 22.2939L19.2455 25.7005C19.3591 25.8131 19.5083 25.8818 19.6677 25.8956L22.6702 26.1541C22.8705 26.1727 23.0681 26.1011 23.2101 25.959L25.9315 23.2373C26.0732 23.095 26.1443 22.8976 26.1266 22.6977L25.8681 19.6994C25.8546 19.5401 25.7856 19.3908 25.673 19.2776L22.3256 15.9302C22.6489 15.888 22.9749 15.867 23.3008 15.8667C27.4745 15.8693 30.8553 19.255 30.8527 23.4284C30.8517 25.4243 30.0611 27.3384 28.6533 28.7531ZM37.6844 14.5649C37.5849 14.7688 37.5934 15.0086 37.7069 15.2043C38.4226 16.4377 38.9734 17.7602 39.3445 19.1372C39.4103 19.3542 39.5808 19.525 39.7981 19.5908L45.5314 21.464V25.2607L39.7935 27.2428C39.5762 27.3086 39.4057 27.4791 39.3399 27.6964C38.9858 29.0234 38.4665 30.3003 37.793 31.4974L34.5817 28.2678C37.2413 22.1063 34.4024 14.955 28.2409 12.2958C22.0792 9.63621 14.9278 12.4748 12.2686 18.6365C9.60904 24.798 12.4476 31.9493 18.6094 34.6085C21.5654 35.8845 24.9069 35.9355 27.9003 34.7496L31.1571 38.0064C30.0768 38.5885 28.9341 39.0447 27.7504 39.3674C27.5331 39.4328 27.3626 39.6037 27.2968 39.821L25.4008 45.5452H21.6135L19.6448 39.8118C19.579 39.5945 19.4085 39.424 19.1912 39.3582C17.8105 38.9914 16.4842 38.4452 15.2449 37.7344C15.0427 37.6238 14.7986 37.6238 14.5963 37.7344L9.21667 40.4558L6.52244 37.7933L9.18493 32.3502C9.28441 32.1467 9.2759 31.9068 9.16235 31.7108C8.44666 30.4777 7.89786 29.1553 7.52938 27.7782C7.4636 27.5609 7.29311 27.3904 7.07581 27.3243L1.36074 25.424V21.6272L7.07581 19.6497C7.29311 19.5839 7.4636 19.4134 7.52938 19.1961C7.90081 17.8171 8.44666 16.4908 9.15319 15.2498C9.26118 15.0489 9.26118 14.8067 9.15319 14.6058L6.41804 9.217L9.10345 6.53193L14.5466 9.18984C14.7465 9.29652 14.9861 9.29652 15.186 9.18984C16.4197 8.47644 17.7422 7.92731 19.1186 7.5572C19.3359 7.49142 19.5063 7.32059 19.5721 7.1033L21.4456 1.36107H25.2378L27.2153 7.08988C27.2811 7.30718 27.4516 7.47767 27.6689 7.54345C29.0492 7.91717 30.3769 8.46433 31.6198 9.17184C31.8207 9.27983 32.0629 9.27983 32.2638 9.17184L37.6389 6.45011L40.3151 9.13552L37.6844 14.5649Z" fill="#04103B"/>
</svg>
