<svg width="48" height="48" viewBox="0 0 48 48" fill="none" xmlns="http://www.w3.org/2000/svg">
<path fill-rule="evenodd" clip-rule="evenodd" d="M21.6 0H26.4C30.2344 0 33.3688 2.99741 33.5878 6.77695L33.6 7.2V9.6H40.8C44.7765 9.6 48 12.8236 48 16.8V40.8C48 44.7765 44.7765 48 40.8 48H7.2C3.22355 48 0 44.7765 0 40.8V16.8C0 12.8236 3.22355 9.6 7.2 9.6H14.4V7.2C14.4 3.36557 17.3974 0.231214 21.1769 0.0122225L21.6 0ZM43.2008 33.6001H4.80078V40.8001C4.80078 42.1256 5.8753 43.2001 7.20078 43.2001H40.8008C42.1263 43.2001 43.2008 42.1256 43.2008 40.8001V33.6001ZM40.8008 14.3999H7.20078C5.8753 14.3999 4.80078 15.4744 4.80078 16.7999V28.7999H43.2008V16.7999C43.2008 15.4744 42.1263 14.3999 40.8008 14.3999ZM26.4002 4.7998H21.6002C20.3694 4.7998 19.355 5.7263 19.2163 6.91991L19.2002 7.1998V9.5998H28.8002V7.1998C28.8002 5.969 27.8737 4.95459 26.6801 4.81595L26.4002 4.7998Z" fill="#04103B"/>
</svg>
