<svg width="47" height="54" viewBox="0 0 47 54" fill="none" xmlns="http://www.w3.org/2000/svg">
<path d="M41.7766 29.5935H6.0918L13.9251 26.9824H33.9434L41.7766 29.5935Z" fill="#6B4F5B"/>
<path d="M41.777 30.4631H6.09213C5.66544 30.4631 5.30119 30.1537 5.23287 29.7323C5.16498 29.311 5.41173 28.9024 5.81688 28.767L13.6501 26.1559C13.7389 26.1261 13.832 26.1113 13.9256 26.1113H33.9439C34.0375 26.1113 34.1304 26.1261 34.2194 26.1559L42.0527 28.767C42.4576 28.9021 42.7046 29.311 42.6367 29.7323C42.5679 30.1537 42.2037 30.4631 41.777 30.4631ZM11.4555 28.7224H36.4138L33.8027 27.8521H14.0666L11.4555 28.7224Z" fill="#4C241D"/>
<path d="M24.3706 10.4443L15.667 13.891L16.3924 20.0183L17.8429 18.1035L24.3706 15.8058L30.8983 18.1035L32.349 20.0183L33.0742 13.891L24.3706 10.4443Z" fill="#9DC1E4"/>
<path d="M32.349 20.888C32.0809 20.888 31.8224 20.764 31.6551 20.5433L30.3628 18.8366L24.3708 16.7279L18.379 18.8366L17.0868 20.5433C16.8722 20.8264 16.508 20.9513 16.1646 20.8573C15.8221 20.7642 15.5702 20.4726 15.5284 20.1199L14.8029 13.9926C14.7566 13.6002 14.9796 13.2264 15.3469 13.0811L24.0505 9.63444C24.2562 9.55284 24.4857 9.55284 24.6913 9.63444L33.395 13.0811C33.7623 13.2264 33.9853 13.6005 33.9389 13.9926L33.2135 20.1199C33.1719 20.4726 32.9197 20.7642 32.5773 20.8573C32.5015 20.8782 32.4252 20.888 32.349 20.888ZM24.3708 14.9349C24.4685 14.9349 24.5662 14.9515 24.6598 14.9843L31.1875 17.2819C31.3485 17.3384 31.4893 17.4411 31.5924 17.5771L31.7387 17.7706L32.1314 14.4532L24.3708 11.38L16.6102 14.453L17.003 17.7704L17.1492 17.5769C17.2526 17.4409 17.3931 17.338 17.5542 17.2817L24.0819 14.9841C24.1754 14.9515 24.2731 14.9349 24.3708 14.9349Z" fill="#4C241D"/>
<path d="M28.6586 20.0181C29.2576 18.1425 29.5918 16.1001 29.5918 13.9591C29.5918 8.6183 27.5425 3.87439 24.3696 0.870117C21.1967 3.87439 19.1475 8.6183 19.1475 13.9591C19.1475 16.1001 19.4817 18.1425 20.0807 20.0181H28.6586Z" fill="white"/>
<path d="M28.659 20.8886H20.0812C19.7026 20.8886 19.3673 20.6438 19.2519 20.2831C18.6055 18.2588 18.2773 16.131 18.2773 13.9595C18.2773 8.54559 20.2798 3.54449 23.7715 0.238425C24.1072 -0.0794749 24.6325 -0.0794749 24.9682 0.238425C28.4601 3.54428 30.4626 8.54537 30.4626 13.9592C30.4626 16.1308 30.1345 18.2588 29.488 20.2829C29.3729 20.6438 29.0376 20.8886 28.659 20.8886ZM20.7281 19.1479H28.0123C28.4836 17.4777 28.7221 15.7352 28.7221 13.9592C28.7221 9.3435 27.1455 5.07503 24.3703 2.10492C21.5952 5.07503 20.0185 9.34371 20.0185 13.9592C20.0183 15.7352 20.2568 17.4777 20.7281 19.1479Z" fill="#4C241D"/>
<path d="M24.3709 13.0562C25.8129 13.0562 26.9819 11.8871 26.9819 10.4451C26.9819 9.00301 25.8129 7.83398 24.3709 7.83398C22.9288 7.83398 21.7598 9.00301 21.7598 10.4451C21.7598 11.8871 22.9288 13.0562 24.3709 13.0562Z" fill="#02EAE6"/>
<path d="M24.3711 13.9258C22.4515 13.9258 20.8896 12.3639 20.8896 10.4443C20.8896 8.52476 22.4515 6.96289 24.3711 6.96289C26.2907 6.96289 27.8525 8.52476 27.8525 10.4443C27.8525 12.3639 26.2907 13.9258 24.3711 13.9258ZM24.3711 8.70361C23.4111 8.70361 22.6304 9.48433 22.6304 10.4443C22.6304 11.4043 23.4111 12.1851 24.3711 12.1851C25.3311 12.1851 26.1118 11.4043 26.1118 10.4443C26.1118 9.48433 25.3311 8.70361 24.3711 8.70361Z" fill="#4C241D"/>
<path d="M32.2046 29.5935V27.4176C32.2046 26.6965 31.6202 26.1121 30.8991 26.1121C30.178 26.1121 29.5935 25.5276 29.5935 24.8065C29.5935 24.0854 29.0091 23.501 28.288 23.501H27.4176C26.6965 23.501 26.1121 22.9165 26.1121 22.1954V20.0195H22.6306V22.1954C22.6306 22.9165 22.0462 23.501 21.3251 23.501H20.4547C19.7336 23.501 19.1492 24.0854 19.1492 24.8065C19.1492 25.5276 18.5647 26.1121 17.8436 26.1121C17.1225 26.1121 16.5381 26.6965 16.5381 27.4176V29.5935" fill="#E66353"/>
<path d="M32.2048 30.4631C31.7242 30.4631 31.3345 30.0734 31.3345 29.5928V27.4169C31.3345 27.1767 31.1395 26.9817 30.8993 26.9817C29.6995 26.9817 28.7234 26.0056 28.7234 24.8058C28.7234 24.5656 28.5284 24.3706 28.2882 24.3706H27.4179C26.2181 24.3706 25.242 23.3945 25.242 22.1947V20.8892H23.5012V22.1947C23.5012 23.3945 22.5251 24.3706 21.3253 24.3706H20.455C20.2147 24.3706 20.0198 24.5656 20.0198 24.8058C20.0198 26.0056 19.0437 26.9817 17.8439 26.9817C17.6037 26.9817 17.4087 27.1767 17.4087 27.4169V29.5928C17.4087 30.0734 17.019 30.4631 16.5383 30.4631C16.0577 30.4631 15.668 30.0734 15.668 29.5928V27.4169C15.668 26.2171 16.6441 25.241 17.8439 25.241C18.0841 25.241 18.2791 25.046 18.2791 24.8058C18.2791 23.606 19.2552 22.6299 20.455 22.6299H21.3253C21.5655 22.6299 21.7605 22.4349 21.7605 22.1947V20.0188C21.7605 19.5381 22.1502 19.1484 22.6309 19.1484H26.1123C26.593 19.1484 26.9827 19.5381 26.9827 20.0188V22.1947C26.9827 22.4349 27.1776 22.6299 27.4179 22.6299H28.2882C29.488 22.6299 30.4641 23.606 30.4641 24.8058C30.4641 25.046 30.6591 25.241 30.8993 25.241C32.0991 25.241 33.0752 26.2171 33.0752 27.4169V29.5928C33.0752 30.0734 32.6855 30.4631 32.2048 30.4631Z" fill="#4C241D"/>
<path d="M6.0918 29.5918H29.5916V53.0916H6.0918V29.5918Z" fill="white"/>
<path d="M29.5918 53.9622H6.09204C5.61138 53.9622 5.22168 53.5725 5.22168 53.0918V29.592C5.22168 29.1114 5.61138 28.7217 6.09204 28.7217H29.5918C30.0725 28.7217 30.4622 29.1114 30.4622 29.592V53.0918C30.4622 53.5725 30.0725 53.9622 29.5918 53.9622ZM6.9624 52.2215H28.7215V30.4624H6.9624V52.2215Z" fill="#4C241D"/>
<path d="M29.5928 29.5918H41.7778V53.0916H29.5928V29.5918Z" fill="#E2E2E2"/>
<path d="M41.7781 53.9622H29.593C29.1124 53.9622 28.7227 53.5725 28.7227 53.0918V29.592C28.7227 29.1114 29.1124 28.7217 29.593 28.7217H41.7781C42.2587 28.7217 42.6484 29.1114 42.6484 29.592V53.0918C42.6484 53.5725 42.2587 53.9622 41.7781 53.9622ZM30.4634 52.2215H40.9077V30.4624H30.4634V52.2215Z" fill="#4C241D"/>
<path d="M0.870117 36.5547H25.2402L29.5921 29.5918H6.09229L0.870117 36.5547Z" fill="white"/>
<path d="M25.2406 37.4253H0.870427C0.54056 37.4253 0.239415 37.2393 0.0918884 36.9442C-0.0556379 36.6492 -0.0236526 36.2964 0.174355 36.0327L5.39653 29.0698C5.56059 28.8505 5.81843 28.7217 6.0926 28.7217H29.5924C29.909 28.7217 30.2001 28.8934 30.3535 29.1701C30.5069 29.4469 30.498 29.785 30.3307 30.0533L25.9788 37.0162C25.8194 37.2706 25.5406 37.4253 25.2406 37.4253ZM2.61115 35.6846H24.7582L28.022 30.4624H6.52778L2.61115 35.6846Z" fill="#4C241D"/>
<path d="M46.1296 36.5547H33.9446L29.5928 29.5918H41.7778L46.1296 36.5547Z" fill="#E2E2E2"/>
<path d="M46.13 37.4253H33.9449C33.6448 37.4253 33.3661 37.2706 33.2066 37.016L28.8548 30.0531C28.6873 29.785 28.6783 29.4467 28.832 29.1699C28.9856 28.8931 29.2765 28.7217 29.5931 28.7217H41.7782C42.0782 28.7217 42.357 28.8764 42.5164 29.131L46.8683 36.0939C47.0358 36.3619 47.0447 36.7003 46.8911 36.9771C46.7375 37.2538 46.4466 37.4253 46.13 37.4253ZM34.4273 35.6846H44.5596L41.2958 30.4624H31.1634L34.4273 35.6846Z" fill="#4C241D"/>
<path d="M11.3154 45.2588H23.5005V49.6106H11.3154V45.2588Z" fill="#FC8C29"/>
<path d="M23.5007 50.4812H11.3157C10.835 50.4812 10.4453 50.0915 10.4453 49.6108V45.259C10.4453 44.7784 10.835 44.3887 11.3157 44.3887H23.5007C23.9814 44.3887 24.3711 44.7784 24.3711 45.259V49.6108C24.3711 50.0915 23.9814 50.4812 23.5007 50.4812ZM12.186 48.7405H22.6304V46.1294H12.186V48.7405Z" fill="#4C241D"/>
<path d="M24.3713 20.8882C23.8907 20.8882 23.501 20.4985 23.501 20.0178V16.5364C23.501 16.0557 23.8907 15.666 24.3713 15.666C24.852 15.666 25.2417 16.0557 25.2417 16.5364V20.0178C25.2417 20.4985 24.852 20.8882 24.3713 20.8882Z" fill="#4C241D"/>
<path d="M17.4082 43.5181H11.3157C10.835 43.5181 10.4453 43.1284 10.4453 42.6477C10.4453 42.167 10.835 41.7773 11.3157 41.7773H17.4082C17.8889 41.7773 18.2786 42.167 18.2786 42.6477C18.2786 43.1284 17.8889 43.5181 17.4082 43.5181Z" fill="#4C241D"/>
<path d="M13.9268 40.9067H11.3157C10.835 40.9067 10.4453 40.517 10.4453 40.0364C10.4453 39.5557 10.835 39.166 11.3157 39.166H13.9268C14.4074 39.166 14.7971 39.5557 14.7971 40.0364C14.7971 40.517 14.4074 40.9067 13.9268 40.9067Z" fill="#4C241D"/>
</svg>
