<svg width="24" height="23" viewBox="0 0 24 23" fill="none" xmlns="http://www.w3.org/2000/svg">
<path d="M23.9374 8.69131C23.7803 8.20533 23.3492 7.86017 22.8393 7.81421L15.9122 7.18523L13.1731 0.774005C12.9711 0.304145 12.5112 0 12.0001 0C11.489 0 11.0291 0.304145 10.8271 0.775104L8.08796 7.18523L1.15981 7.81421C0.650769 7.86127 0.220827 8.20533 0.0628036 8.69131C-0.0952201 9.17728 0.0507184 9.71031 0.435798 10.0463L5.67182 14.6383L4.12784 21.4396C4.01486 21.9397 4.20896 22.4566 4.62388 22.7565C4.84691 22.9177 5.10784 22.9997 5.37097 22.9997C5.59785 22.9997 5.82289 22.9385 6.02486 22.8177L12.0001 19.2465L17.9731 22.8177C18.4102 23.0806 18.9612 23.0566 19.3752 22.7565C19.7903 22.4557 19.9842 21.9386 19.8713 21.4396L18.3273 14.6383L23.5633 10.0472C23.9484 9.71031 24.0954 9.17819 23.9374 8.69131Z" fill="#FFC107"/>
</svg>
