<svg width="70" height="63" viewBox="0 0 70 63" fill="none" xmlns="http://www.w3.org/2000/svg">
<path d="M51.7321 62.9413H0.209749C0.209749 62.9413 -1.0485 46.4857 2.67153 41.3871C5.57097 37.4044 20.7793 33.5859 20.7793 33.5859H31.1845C31.1845 33.5859 46.3928 37.4044 49.2922 41.3871C52.9904 46.4857 51.7321 62.9413 51.7321 62.9413Z" fill="#3B4346"/>
<path d="M34.9052 41.4386L28.0122 61.0016L25.9662 62.9382L23.9311 61.0016L17.0381 41.4386L18.2197 35.4866L20.7691 33.5938H31.1742L33.7235 35.4866L34.9052 41.4386Z" fill="#D8D8D8"/>
<path d="M31.1739 26.7559V39.765L25.9659 41.4609L20.7578 39.765V26.7559H31.1739Z" fill="#F7BD89"/>
<path d="M14.1508 48.654C16.4813 53.315 19.4245 58.3917 22.8381 62.9433H25.9673V60.6894C21.8972 51.5316 19.4245 42.4613 20.7593 33.5879L17.5207 34.2991C16.525 34.5179 15.6169 35.054 14.9823 35.8527C13.5162 37.7346 12.3345 40.2292 11.3389 43.1287L15.7591 43.6757L14.1508 48.654Z" fill="#282E30"/>
<path d="M25.966 62.9433H29.0952C32.5089 58.3917 35.463 53.315 37.7826 48.654L36.1523 43.6648L40.5726 43.1177C39.5879 40.2292 38.4062 37.7346 36.9401 35.8527C36.3165 35.0431 35.3974 34.5179 34.4017 34.2991L31.1631 33.5879C32.5089 42.4613 30.0362 51.5425 25.9551 60.6894V62.9433H25.966Z" fill="#282E30"/>
<path d="M20.7698 33.5879L18.2314 34.0912C18.6472 38.3473 19.9602 43.3365 22.597 45.9296L25.9779 41.4547C23.1222 39.2883 21.3825 36.6733 20.7698 33.5879Z" fill="#EBEBEB"/>
<path d="M31.1739 33.5879L33.7122 34.0912C33.2965 38.3473 31.9835 43.3365 29.3467 45.9296L25.9658 41.4547C28.8215 39.2883 30.5611 36.6733 31.1739 33.5879Z" fill="#EBEBEB"/>
<path d="M43.2109 62.9442H41.5479L42.3794 54.1475L43.2109 62.9442Z" fill="#282E30"/>
<path d="M10.3974 62.9442H8.73438L9.56591 54.1475L10.3974 62.9442Z" fill="#282E30"/>
<path opacity="0.15" d="M44.9722 38.3843V43.8877C44.9722 52.6954 37.8385 59.8291 29.0417 59.8291H0.0473621C-0.105815 54.8071 -0.040168 45.0913 2.66232 41.3931C4.82869 38.428 13.8115 35.5505 18.2536 34.2813C19.5994 33.8874 20.5294 33.6576 20.7373 33.592L20.7701 33.5811C21.3828 36.6665 23.1225 39.2815 25.9781 41.4588C27.4005 40.3756 28.5493 39.172 29.4246 37.8591C30.2999 36.5571 30.8798 35.1238 31.1862 33.5811C31.1862 33.5811 31.219 33.592 31.2737 33.6029C31.5691 33.6795 32.4554 33.9202 33.7027 34.2813C36.5912 35.1019 41.3725 36.6118 44.9722 38.3843Z" fill="white"/>
<path opacity="0.15" d="M29.4109 37.87C29.017 39.8285 28.3605 41.7104 27.4633 43.4282C23.8965 50.3649 16.6643 55.1244 8.31613 55.1244H0.0117188C0.0992488 50.1461 0.657253 44.1394 2.6595 41.3931C4.82587 38.428 13.8086 35.5505 18.2508 34.2813C19.5966 33.8874 20.5266 33.6576 20.7345 33.592L20.7673 33.5811C21.38 36.6665 23.1197 39.2815 25.9753 41.4588C27.3867 40.3756 28.5356 39.183 29.4109 37.87Z" fill="white"/>
<path d="M37.4104 17.1086C37.4104 23.4217 32.2899 34.8225 25.9768 34.8225C19.6527 34.8225 14.5322 23.4108 14.5322 17.1086C14.5322 10.7846 19.6527 5.66406 25.9768 5.66406C32.2899 5.66406 37.4104 10.7846 37.4104 17.1086Z" fill="#FFCC99"/>
<path d="M15.7355 23.1839C15.5605 18.8184 15.7902 14.8686 17.5737 12.4724C23.5914 14.7154 29.1276 13.8729 34.1825 9.99971C33.9418 12.1114 34.1825 13.851 35.2 14.9999C35.5611 15.4047 35.7471 15.9736 35.5283 16.466C34.7733 18.1619 35.4079 20.755 35.7799 23.1839H37.5086C38.4715 15.8095 39.9814 7.64734 36.4583 6.73921C34.1278 1.21388 29.0839 -0.930609 22.727 0.393283C22.4206 0.458931 22.1143 0.53552 21.8079 0.62305C16.3811 2.16577 12.9455 7.52699 13.3175 13.1617C13.5363 16.3894 13.9959 19.5186 14.6961 22.5603L15.7355 23.1839Z" fill="#3B4346"/>
<path d="M38.4196 22.8022C37.5005 24.4324 36.0672 25.3624 35.2029 24.8701C34.3385 24.3887 34.3823 22.6818 35.2904 21.0516C36.1985 19.4323 37.6428 18.4913 38.4962 18.9728C39.3715 19.4651 39.3168 21.1829 38.4196 22.8022Z" fill="#FFCC99"/>
<path d="M13.5262 22.8022C14.4452 24.4324 15.8785 25.3624 16.7429 24.8701C17.6072 24.3887 17.5635 22.6818 16.6554 21.0516C15.7472 19.4323 14.303 18.4913 13.4496 18.9728C12.5743 19.4651 12.629 21.1829 13.5262 22.8022Z" fill="#FFCC99"/>
<path opacity="0.2" d="M31.0885 0.98467C28.747 -0.0766324 25.8914 -0.284516 22.7184 0.3829C22.4011 0.459489 22.0948 0.525137 21.7994 0.612667C16.3725 2.14444 12.926 7.5166 13.298 13.1404C13.4293 15.077 13.6481 16.9698 13.9654 18.8408C13.7685 18.8408 13.6044 18.8846 13.4402 18.9721C12.5759 19.4645 12.6087 21.1822 13.5278 22.7906C14.2827 24.1692 15.4315 25.0445 16.285 24.9898C17.1603 27.189 18.331 29.3335 19.7096 31.0622H20.9131C26.526 31.0622 31.0885 26.5106 31.0885 20.8868V0.98467Z" fill="white"/>
<path d="M52.4656 59.7641V61.7991C52.4656 62.4337 51.9514 62.948 51.3168 62.948H25.1234C24.4888 62.948 23.9746 62.4337 23.9746 61.7991V59.7641C23.9746 59.1295 24.4888 58.6152 25.1234 58.6152H51.3168C51.9514 58.6152 52.4656 59.1295 52.4656 59.7641Z" fill="#DBD7D9"/>
<path d="M69.97 42.8675L65.5935 62.0475C65.4731 62.5727 65.0136 62.9447 64.4665 62.9447H38.3388C37.5948 62.9447 37.0477 62.2554 37.2119 61.5333L41.5884 42.3532C41.7087 41.8281 42.1683 41.4561 42.7153 41.4561H68.854C69.587 41.467 70.1341 42.1454 69.97 42.8675Z" fill="#EBEBEB"/>
<path d="M55.8358 52.2005C55.6717 53.2399 54.676 54.0933 53.6257 54.0933C52.5753 54.0933 51.8641 53.2289 52.0392 52.2005C52.2142 51.1501 53.199 50.3076 54.2493 50.3076C55.2997 50.3076 56.0109 51.1501 55.8358 52.2005Z" fill="#DBD7D9"/>
</svg>
