<svg width="66" height="61" viewBox="0 0 66 61" fill="none" xmlns="http://www.w3.org/2000/svg">
<g opacity="0.5">
<path d="M54.8823 45.7139C52.4887 45.7139 50.541 47.661 50.541 50.0546C50.541 52.4482 52.4887 54.3959 54.8823 54.3959C57.2759 54.3959 59.223 52.4482 59.223 50.0546C59.223 47.661 57.2759 45.7139 54.8823 45.7139ZM54.8823 52.4673C53.5519 52.4673 52.4696 51.385 52.4696 50.0551C52.4696 48.7247 53.5519 47.6424 54.8823 47.6424C56.2122 47.6424 57.2945 48.7247 57.2945 50.0551C57.2945 51.385 56.2122 52.4673 54.8823 52.4673Z" fill="white"/>
<path d="M63.9595 47.1917H63.9018C63.739 46.6794 63.5316 46.1792 63.283 45.7001L63.3247 45.6584C63.6778 45.3058 63.8721 44.8362 63.8721 44.337C63.8721 43.8378 63.6778 43.3687 63.3247 43.0157L61.9205 41.6114C61.1917 40.8832 60.006 40.8827 59.2772 41.6114L59.236 41.6526C58.7569 41.404 58.2567 41.1966 57.7439 41.0339V40.9761C57.7439 39.9455 56.9057 39.1073 55.8751 39.1073H53.8893C53.36 39.1073 52.8813 39.3288 52.5408 39.6834V24.2262C52.5408 23.0058 51.5479 22.0129 50.3275 22.0129H15.42C14.1996 22.0129 13.2067 23.0058 13.2067 24.2262V54.5047H9.08942C9.01811 54.5047 8.95985 54.4464 8.95985 54.3751V21.9235L32.874 8.50645L56.7877 21.9235V36.8423C56.7877 37.3746 57.2191 37.8065 57.752 37.8065C58.2848 37.8065 58.7162 37.3746 58.7162 36.8423V23.0053L60.8151 24.183C61.1661 24.3799 61.5493 24.4733 61.9285 24.4733C62.7225 24.4733 63.4975 24.0625 63.9208 23.3323L65.4376 20.7131C65.7475 20.1778 65.8283 19.555 65.6651 18.9584C65.5019 18.3622 65.1152 17.867 64.5758 17.5642L33.6093 0.191036C33.1558 -0.0635948 32.5923 -0.0635948 32.1388 0.190533C32.1388 0.190533 32.1388 0.191036 32.1382 0.191036L1.17227 17.5642C0.63288 17.867 0.246163 18.3622 0.0824363 18.9584C-0.0807883 19.555 7.06567e-05 20.1778 0.309946 20.7131L1.82718 23.3323C2.45196 24.4111 3.84564 24.7933 4.93297 24.183L7.03129 23.0053V54.3751C7.03129 55.5101 7.95489 56.4332 9.08942 56.4332H42.3893C42.9216 56.4332 43.3535 56.0018 43.3535 55.4689C43.3535 54.9361 42.9216 54.5047 42.3893 54.5047H15.1353V51.0177H43.9356V51.0468C43.9356 52.0774 44.7738 52.9156 45.8044 52.9156H45.8622C46.0254 53.4284 46.2323 53.9286 46.4809 54.4072L46.4397 54.4484C46.0867 54.8015 45.8923 55.2711 45.8923 55.7703C45.8923 56.2695 46.0867 56.7386 46.4397 57.0916L47.844 58.4959C48.197 58.8489 48.6661 59.0433 49.1653 59.0433C49.6646 59.0433 50.1341 58.8489 50.4867 58.4959L50.5284 58.4547C51.007 58.7028 51.5072 58.9107 52.02 59.0734V59.1307C52.02 60.1618 52.8582 61 53.8888 61H55.8751C56.9057 61 57.7439 60.1618 57.7439 59.1307V59.0734C58.2567 58.9102 58.7569 58.7028 59.2355 58.4547L59.2767 58.4959C60.006 59.2246 61.1917 59.2246 61.92 58.4959L63.3242 57.0916C63.6773 56.7386 63.8716 56.2695 63.8716 55.7703C63.8716 55.2711 63.6773 54.8015 63.3242 54.4489L63.283 54.4072C63.5316 53.9281 63.739 53.4279 63.9018 52.9156H63.9595C64.9901 52.9156 65.8283 52.0774 65.8283 51.0468V49.0605C65.8283 48.0299 64.9901 47.1917 63.9595 47.1917ZM3.98928 22.5011C3.81651 22.5975 3.59503 22.5372 3.49609 22.3655L1.97886 19.7464C1.91256 19.6318 1.92763 19.5229 1.9427 19.4676C1.95776 19.4129 2.00045 19.3109 2.11596 19.2461L32.8735 1.98952L63.6316 19.2461C63.7471 19.3109 63.7898 19.4129 63.8048 19.4676C63.8199 19.5229 63.835 19.6318 63.7687 19.7464L62.2519 22.3655C62.1525 22.5372 61.931 22.5975 61.7582 22.5011L33.6093 6.70797C33.5807 6.6919 33.552 6.67683 33.5229 6.66277C33.5113 6.65774 33.5003 6.65222 33.4887 6.6472C33.4802 6.64318 33.4712 6.63966 33.4621 6.63565C33.4466 6.62912 33.4305 6.62259 33.4149 6.61656C33.4129 6.61606 33.4109 6.61506 33.4094 6.61455C33.0272 6.46991 32.5958 6.48598 32.2246 6.66277C32.1955 6.67683 32.1669 6.6919 32.1382 6.70797L3.98928 22.5011ZM15.1353 24.2262C15.1353 24.069 15.2628 23.9415 15.42 23.9415H50.3275C50.4847 23.9415 50.6123 24.069 50.6123 24.2262V27.428H15.1353V24.2262ZM15.1353 29.3565H50.6123V32.8435H15.1353V29.3565ZM15.1353 34.7716H50.6123V38.2585H15.1353V34.7716ZM15.1353 40.1871H50.6123V41.6099C50.5841 41.624 50.556 41.638 50.5284 41.6526L50.4872 41.6114C50.1341 41.2584 49.6651 41.064 49.1658 41.064C48.6666 41.064 48.197 41.2584 47.844 41.6114L46.4397 43.0157C46.2499 43.206 46.1058 43.4295 46.0128 43.6741H15.1353V40.1871ZM45.8044 47.1917C44.7738 47.1917 43.9356 48.0299 43.9356 49.0605V49.0896H15.1353V45.6026H46.386C46.4036 45.6217 46.4212 45.6403 46.4397 45.6584L46.4809 45.7001C46.2323 46.1787 46.0249 46.6789 45.8622 47.1917H45.8044ZM63.8998 50.987H63.6974C62.9681 50.987 62.3167 51.4737 62.1123 52.1718C61.9612 52.6886 61.7527 53.1918 61.4926 53.6664C61.143 54.3048 61.259 55.1104 61.7743 55.6261L61.9185 55.7703L60.5986 57.0901L60.455 56.946C59.9387 56.4302 59.1331 56.3147 58.4953 56.6642C58.0207 56.9244 57.5174 57.1328 56.9996 57.2845C56.302 57.4884 55.8154 58.1398 55.8154 58.8685V59.0714H53.9486V58.8685C53.9486 58.1398 53.4619 57.4884 52.7643 57.2845C52.2465 57.1328 51.7433 56.9239 51.2692 56.6642C50.6308 56.3142 49.8248 56.4302 49.3095 56.946L49.1653 57.0901L47.8455 55.7703L47.9896 55.6261C48.5054 55.1104 48.6209 54.3048 48.2714 53.6664C48.0112 53.1923 47.8028 52.6891 47.6516 52.1713C47.4472 51.4737 46.7958 50.987 46.0671 50.987H45.8642V49.1203H46.0671C46.7958 49.1203 47.4472 48.6336 47.6516 47.936C47.8028 47.4182 48.0112 46.9155 48.2714 46.4404C48.6209 45.8025 48.5054 44.997 47.9896 44.4812L47.8455 44.337L49.1653 43.0172L49.3095 43.1608C49.8248 43.6771 50.6308 43.7931 51.2687 43.4431C51.4877 43.323 51.7121 43.214 51.9417 43.1166C51.9487 43.1141 51.9552 43.1111 51.9618 43.1081C52.2239 42.9981 52.4921 42.9027 52.7643 42.8228C53.4619 42.6189 53.9486 41.967 53.9486 41.2383V41.0354H55.8154V41.2383C55.8154 41.967 56.302 42.6189 56.9996 42.8228C57.5174 42.9745 58.0202 43.1829 58.4948 43.4431C59.1331 43.7926 59.9392 43.6766 60.4545 43.1608L60.5986 43.0172L61.9185 44.337L61.7743 44.4812C61.259 44.9965 61.143 45.8025 61.4926 46.4404C61.7527 46.9155 61.9612 47.4187 62.1128 47.936C62.3167 48.6331 62.9681 49.1203 63.6974 49.1203H63.8998V50.987Z" fill="white"/>
</g>
</svg>
