<svg width="38" height="42" viewBox="0 0 38 42" fill="none" xmlns="http://www.w3.org/2000/svg">
<rect width="38" height="42" rx="2" fill="url(#paint0_linear_904_330)" fill-opacity="0.4"/>
<rect x="9" y="8" width="22" height="25" rx="2" fill="url(#paint1_linear_904_330)"/>
<path d="M17.1073 20.3859C17.4475 19.3387 16.8755 18.2158 15.8282 17.8756C14.7812 17.5353 13.6582 18.1073 13.3179 19.1546C12.9777 20.2018 13.5497 21.3247 14.597 21.6649C15.6394 22.0037 16.7671 21.4329 17.1073 20.3859ZM14.9048 20.7176C14.3812 20.5475 14.0952 19.9861 14.2653 19.4625C14.4353 18.9394 14.9964 18.6527 15.5204 18.8229C16.044 18.993 16.3301 19.5544 16.16 20.0781C15.9903 20.6004 15.4272 20.8873 14.9048 20.7176Z" fill="white"/>
<path d="M17.8307 22.6134C16.94 21.9663 15.6953 22.1633 15.048 23.0542C14.4009 23.9449 14.5979 25.1896 15.4888 25.8369C16.3831 26.4866 17.6299 26.2792 18.2715 25.3961C18.9186 24.5054 18.7216 23.2607 17.8307 22.6134ZM17.4656 24.8106C17.1427 25.255 16.5186 25.3538 16.0743 25.031C15.6289 24.7074 15.5303 24.0851 15.8539 23.6397C16.1774 23.1944 16.7998 23.0957 17.2452 23.4193C17.6906 23.7429 17.7892 24.3652 17.4656 24.8106Z" fill="white"/>
<path d="M19.8218 22.381C18.931 23.0281 18.7338 24.2728 19.381 25.1637C20.0249 26.0499 21.2726 26.2519 22.1637 25.6044C23.0544 24.9573 23.2517 23.7126 22.6044 22.8218C21.9573 21.931 20.7127 21.7338 19.8218 22.381ZM21.5782 24.7986C21.1339 25.1215 20.5097 25.0226 20.1869 24.5782C19.8633 24.1329 19.9618 23.5105 20.4073 23.1869C20.8526 22.8633 21.475 22.9618 21.7986 23.4073C22.1222 23.8526 22.0237 24.475 21.5782 24.7986Z" fill="white"/>
<path d="M20.8971 20.3859C21.237 21.4322 22.3642 22.0039 23.4073 21.6649C24.4545 21.3247 25.0267 20.2019 24.6864 19.1546C24.3461 18.1075 23.2234 17.5353 22.1761 17.8756C21.129 18.2158 20.5568 19.3386 20.8971 20.3859ZM22.4839 18.8229C23.0076 18.6527 23.5689 18.9388 23.7391 19.4624C23.9092 19.986 23.6232 20.5474 23.0996 20.7176C22.5771 20.8872 22.0141 20.6004 21.8444 20.078C21.6742 19.5545 21.9603 18.993 22.4839 18.8229Z" fill="white"/>
<path d="M19.002 19.0098C20.1004 19.0098 20.9941 18.1161 20.9941 17.0176C20.9941 15.9191 20.1004 15.0254 19.002 15.0254C17.9035 15.0254 17.0098 15.9191 17.0098 17.0176C17.0098 18.1161 17.9035 19.0098 19.002 19.0098ZM19.002 16.0215C19.5512 16.0215 19.9981 16.4683 19.9981 17.0176C19.9981 17.5668 19.5512 18.0137 19.002 18.0137C18.4527 18.0137 18.0059 17.5668 18.0059 17.0176C18.0059 16.4683 18.4527 16.0215 19.002 16.0215Z" fill="white"/>
<path d="M19.002 21.5C19.277 21.5 19.5 21.277 19.5 21.002C19.5 20.7269 19.277 20.5039 19.002 20.5039C18.7269 20.5039 18.5039 20.7269 18.5039 21.002C18.5039 21.277 18.7269 21.5 19.002 21.5Z" fill="white"/>
<path d="M27.7246 29.0564C26.3525 28.3703 24.8049 28.0077 23.2491 28.0077H22.8485C25.3041 26.6428 26.9706 24.0143 26.9706 21.0019C26.9706 16.5896 23.3959 13 19.0019 13C14.5969 13 11 16.5972 11 21.0019C11 25.4069 14.5972 29.0038 19.0019 29.0038H23.2491C24.6511 29.0038 26.0446 29.33 27.2791 29.9473C27.5257 30.0706 27.8246 29.9701 27.9473 29.7246C28.0703 29.4786 27.9706 29.1794 27.7246 29.0564ZM11.9961 21.0019C11.9961 17.1389 15.1389 13.9961 19.0019 13.9961C22.8466 13.9961 25.9745 17.1389 25.9745 21.0019C25.9745 24.8649 22.8466 28.0077 19.0019 28.0077C15.1389 28.0077 11.9961 24.8649 11.9961 21.0019Z" fill="white"/>
<defs>
<linearGradient id="paint0_linear_904_330" x1="9" y1="6.46674e-08" x2="19" y2="147.5" gradientUnits="userSpaceOnUse">
<stop stop-color="#22633A"/>
<stop offset="1" stop-color="#22633A" stop-opacity="0"/>
</linearGradient>
<linearGradient id="paint1_linear_904_330" x1="20" y1="8" x2="20" y2="49" gradientUnits="userSpaceOnUse">
<stop stop-color="#22C55E"/>
<stop offset="1" stop-color="#22C55E" stop-opacity="0"/>
</linearGradient>
</defs>
</svg>
