<svg width="40" height="40" viewBox="0 0 40 40" fill="none" xmlns="http://www.w3.org/2000/svg">
<path d="M40 20C40 19.757 39.9956 19.515 39.9871 19.2741C39.605 8.56469 30.8027 0 20 0C9.19727 0 0.395 8.56469 0.0129687 19.2741C0.004375 19.515 0 19.757 0 20C0 31.0457 10.2736 39.2742 20 39.2742C29.9027 39.2742 40 31.0457 40 20Z" fill="#FF5876"/>
<path d="M20 38.5486C9.19742 38.5486 0.396719 29.9837 0.0145313 19.2744C0.00585938 19.5155 0 19.7571 0 20.0003C0 31.046 8.9543 40.0003 20 40.0003C31.0457 40.0003 40 31.046 40 20.0003C40 19.7571 39.9941 19.5155 39.9855 19.2745C39.6033 29.9838 30.8026 38.5486 20 38.5486Z" fill="#E6485D"/>
<path d="M36.6743 19.2736C36.2943 10.3934 28.9748 3.31055 20.001 3.31055C11.0272 3.31055 3.70763 10.3934 3.32763 19.2736C3.31731 19.5143 3.32755 35.6268 20.001 35.6268C36.6744 35.6268 36.6847 19.5143 36.6743 19.2736Z" fill="#E4EEF9"/>
<path d="M20.0004 35.2375C11.0267 35.2375 3.70832 28.1546 3.32816 19.2744C3.31785 19.5152 3.31152 19.7569 3.31152 20.0002C3.31152 29.2172 10.7834 36.6891 20.0004 36.6891C29.2175 36.6891 36.6893 29.2173 36.6893 20.0003C36.6893 19.757 36.6829 19.5152 36.6727 19.2745C36.2925 28.1546 28.9742 35.2375 20.0004 35.2375Z" fill="#D5E0F2"/>
<path d="M26.062 14.1444C25.5863 13.6752 24.8204 13.6804 24.3513 14.1561L21.5127 17.034L21.7979 18.404L23.1239 18.8458L26.0738 15.8551C26.5429 15.3794 26.5376 14.6135 26.062 14.1444Z" fill="#405B6C"/>
<path d="M18.2871 17.1441L11.8494 11.4072C11.3506 10.9626 10.586 11.0067 10.1415 11.5055C9.69707 12.0043 9.74106 12.769 10.2399 13.2134L16.8043 19.0633L18.1722 18.607L18.2871 17.1441Z" fill="#405B6C"/>
<path d="M28.5663 27.7998C28.429 27.7998 28.291 27.7533 28.1776 27.6581L20.5156 21.2223C20.2599 21.0075 20.2266 20.6259 20.4415 20.3702C20.6563 20.1143 21.0378 20.0811 21.2937 20.2961L28.9556 26.7319C29.2113 26.9468 29.2446 27.3283 29.0298 27.584C28.9102 27.7265 28.7388 27.7998 28.5663 27.7998Z" fill="#86DCFF"/>
<path d="M16.8057 19.0628L17.9354 20.0695L19.3861 19.5765L19.3075 18.0516L18.2885 17.1436C17.5795 17.5696 17.0429 18.2521 16.8057 19.0628Z" fill="#2D4456"/>
<path d="M21.5122 17.0332L20.5518 18.007V19.9184H22.0647L23.1235 18.845C22.8325 18.0578 22.2523 17.4115 21.5122 17.0332Z" fill="#2D4456"/>
<path d="M21.9357 19.2739C21.6418 18.4904 20.8857 17.9326 19.9995 17.9326C19.1132 17.9326 18.3572 18.4904 18.0633 19.2739C17.9786 19.4998 18.0577 21.3413 19.9995 21.3413C21.9413 21.3413 22.0204 19.4998 21.9357 19.2739Z" fill="#FF5876"/>
<path d="M19.9979 20.6158C19.1117 20.6158 18.356 20.058 18.0621 19.2744C17.9773 19.5003 17.9307 19.7447 17.9307 20.0002C17.9307 21.1419 18.8562 22.0674 19.9979 22.0674C21.1396 22.0674 22.065 21.1418 22.065 20.0002C22.065 19.7447 22.0184 19.5003 21.9337 19.2744C21.6399 20.0579 20.8842 20.6158 19.9979 20.6158Z" fill="#E6485D"/>
<path d="M20.6027 7.31027V5.43316C20.6027 5.09848 20.3313 4.82715 19.9966 4.82715C19.662 4.82715 19.3906 5.09848 19.3906 5.43316V7.31027C19.3906 7.64496 19.6619 7.91629 19.9966 7.91629C20.3314 7.91629 20.6027 7.64496 20.6027 7.31027Z" fill="#405B6C"/>
<path d="M19.3906 32.689V34.5661C19.3906 34.9008 19.6619 35.1721 19.9966 35.1721C20.3314 35.1721 20.6027 34.9008 20.6027 34.5661V32.689C20.6027 32.3543 20.3313 32.083 19.9966 32.083C19.662 32.083 19.3906 32.3543 19.3906 32.689Z" fill="#405B6C"/>
<path d="M34.5652 20.6056C34.8999 20.6056 35.1712 20.3343 35.1712 19.9996C35.1712 19.6649 34.8998 19.3936 34.5652 19.3936H32.688C32.3534 19.3936 32.082 19.6649 32.082 19.9996C32.082 20.3343 32.3534 20.6056 32.688 20.6056H34.5652Z" fill="#405B6C"/>
<path d="M5.43121 19.3936C5.09644 19.3936 4.8252 19.6649 4.8252 19.9996C4.8252 20.3343 5.09644 20.6056 5.43121 20.6056H7.30832C7.64309 20.6056 7.91434 20.3343 7.91434 19.9996C7.91434 19.6649 7.64301 19.3936 7.30832 19.3936H5.43121Z" fill="#405B6C"/>
</svg>
