<svg width="36" height="40" viewBox="0 0 36 40" fill="none" xmlns="http://www.w3.org/2000/svg">
<path d="M35.9999 21.7509C35.9999 22.1439 35.9874 22.5345 35.9631 22.9228C35.6842 27.3571 33.8241 31.4859 30.6546 34.6554C27.4859 37.8241 23.3571 39.6842 18.9228 39.9631C18.5345 39.9874 18.1439 39.9999 17.7509 39.9999C9.47952 39.9999 2.63079 34.532 0.337072 27.2243C0.225355 26.8688 0.289417 26.4805 0.510508 26.1797C0.730817 25.879 1.08159 25.7016 1.45503 25.7016H8.3854C8.81352 25.7016 9.20726 25.9352 9.41351 26.3102C11.083 29.3586 14.2775 31.2523 17.7509 31.2523C18.1478 31.2523 18.5384 31.2281 18.9228 31.1797C23.2266 30.6484 26.6484 27.2266 27.1797 22.9228C27.2281 22.5384 27.2523 22.1478 27.2523 21.7509C27.2523 18.2783 25.3586 15.083 22.3102 13.4135C21.9352 13.2073 21.7016 12.8135 21.7016 12.3854V5.45503C21.7016 5.08159 21.879 4.73082 22.1797 4.51051C22.4805 4.28942 22.8688 4.22536 23.2243 4.33707C30.5252 6.62868 35.9999 13.4725 35.9999 21.7509Z" fill="#FAD557"/>
<path d="M35.9617 22.9228C35.9859 22.5345 35.9984 22.1439 35.9984 21.7509C35.9984 13.4725 30.5237 6.62868 23.2228 4.33707C22.8674 4.22536 22.4791 4.28942 22.1783 4.51051C21.8775 4.73082 21.7002 5.08159 21.7002 5.45503V12.3854C21.7002 12.8135 21.9338 13.2073 22.3088 13.4135C25.3572 15.083 27.2509 18.2783 27.2509 21.7509C27.2509 22.1478 27.2267 22.5384 27.1782 22.9228C26.9126 25.0747 25.9244 27.0061 24.4645 28.466L30.6536 34.655C33.8228 31.4856 35.6828 27.3569 35.9617 22.9228Z" fill="#FCB12B"/>
<path d="M18.9228 31.1782V39.9617C18.5345 39.9859 18.1439 39.9984 17.7509 39.9984C9.47953 39.9984 2.63079 34.5306 0.337072 27.2228C0.225355 26.8674 0.289417 26.4791 0.510508 26.1783C0.730817 25.8775 1.08159 25.7002 1.45503 25.7002H8.3854C8.81352 25.7002 9.20726 25.9338 9.41351 26.3088C11.083 29.3572 14.2775 31.2509 17.7509 31.2509C18.1478 31.2509 18.5384 31.2267 18.9228 31.1782Z" fill="#72A3FC"/>
<path d="M18.9206 1.17186C18.9206 0.52468 18.3959 0 17.7488 0C11.9392 0 6.47721 2.26239 2.36914 6.37054L18.5774 22.5788C18.7895 22.3668 18.9206 22.0738 18.9206 21.7502V1.17186Z" fill="#3AD475"/>
<path d="M22.3088 13.4135C25.3572 15.083 27.2509 18.2783 27.2509 21.7509C27.2509 22.1478 27.2267 22.5384 27.1782 22.9228H35.9617C35.9859 22.5345 35.9984 22.1439 35.9984 21.7509C35.9984 13.4725 30.5237 6.62868 23.2228 4.33707C22.8674 4.22536 22.4791 4.28942 22.1783 4.51051C21.8775 4.73082 21.7002 5.08159 21.7002 5.45503V12.3854C21.7002 12.8135 21.9338 13.2073 22.3088 13.4135Z" fill="#FC495C"/>
</svg>
