<svg width="48" height="64" viewBox="0 0 48 64" fill="none" xmlns="http://www.w3.org/2000/svg">
<path fill-rule="evenodd" clip-rule="evenodd" d="M47 3C47 1.89543 46.1046 1 45 1H3C1.89543 1 1 1.89543 1 3V60.3413C1 61.4459 1.89543 62.3413 3 62.3413H45C46.1046 62.3413 47 61.4459 47 60.3413V3Z" stroke="#04103B" stroke-width="2" stroke-linecap="round" stroke-linejoin="round"/>
<path d="M12.8712 11.6265C12.6839 11.355 12.3419 11.2372 12.0265 11.3352C11.7117 11.4334 11.4971 11.725 11.4971 12.0548V16.2929C11.4971 16.7093 11.8345 17.0467 12.2509 17.0467C12.6673 17.0467 13.0047 16.7093 13.0047 16.2929V14.4729L14.4962 16.6327C14.7056 16.9355 15.0727 17.068 15.409 16.963C15.7558 16.8547 15.9801 16.5354 15.9801 16.1424L15.9404 12.0395C15.9363 11.6258 15.5996 11.293 15.1867 11.293C15.1843 11.293 15.1817 11.293 15.1793 11.293C14.7629 11.297 14.4287 11.6378 14.4327 12.054L14.4508 13.9137L12.8712 11.6265Z" fill="black"/>
<path d="M10.1424 16.2929V12.0468C10.1424 11.6304 9.80499 11.293 9.38858 11.293C8.97217 11.293 8.63477 11.6304 8.63477 12.0468V16.2928C8.63477 16.7092 8.97217 17.0466 9.38858 17.0466C9.80499 17.0466 10.1424 16.7092 10.1424 16.2929Z" fill="black"/>
<path d="M28.9042 11.293C28.4878 11.293 28.1504 11.6304 28.1504 12.0468V16.2928C28.1504 16.7092 28.4878 17.0466 28.9042 17.0466C29.3206 17.0466 29.658 16.7092 29.658 16.2928V12.0468C29.658 11.6305 29.3206 11.293 28.9042 11.293Z" fill="black"/>
<path d="M39.3938 12.8201C39.8102 12.8201 40.1476 12.4827 40.1476 12.0663C40.1476 11.6499 39.8102 11.3125 39.3938 11.3125H37.621C37.2046 11.3125 36.8672 11.6499 36.8672 12.0663V16.2734C36.8672 16.6898 37.2046 17.0272 37.621 17.0272H39.3938C39.8102 17.0272 40.1476 16.6898 40.1476 16.2734C40.1476 15.857 39.8102 15.5196 39.3938 15.5196H38.3748V14.9237H39.263C39.6794 14.9237 40.0168 14.5863 40.0168 14.1699C40.0168 13.7534 39.6794 13.416 39.263 13.416H38.3748V12.82H39.3938V12.8201Z" fill="black"/>
<path d="M33.7471 12.8007C34.0215 12.8007 34.286 12.8814 34.512 13.0341C34.8571 13.267 35.3257 13.1764 35.5586 12.8314C35.7916 12.4863 35.701 12.0177 35.3559 11.7848C34.8797 11.463 34.3234 11.293 33.747 11.293C32.1606 11.293 30.8701 12.5835 30.8701 14.1698C30.8701 15.756 32.1606 17.0466 33.747 17.0466C34.3875 17.0466 34.9637 16.8348 35.4132 16.4343C35.5016 16.3556 35.5854 16.2691 35.6623 16.1776C35.9296 15.8585 35.8877 15.3831 35.5686 15.1156C35.2493 14.8483 34.7741 14.8904 34.5066 15.2093C34.4769 15.2449 34.4447 15.2781 34.4106 15.3084C34.239 15.4614 34.0156 15.5389 33.747 15.5389C32.992 15.5389 32.3777 14.9248 32.3777 14.1698C32.3777 13.4148 32.9922 12.8007 33.7471 12.8007Z" fill="black"/>
<path d="M18.9267 17.0469H18.9324C19.2938 17.0445 19.6147 16.813 19.7328 16.4658L21.1192 12.2926C21.2506 11.8975 21.0367 11.4708 20.6415 11.3396C20.2467 11.2084 19.8198 11.4222 19.6886 11.8174L18.9132 14.1514L18.0969 11.8C17.9604 11.4066 17.5307 11.1981 17.1377 11.335C16.7444 11.4715 16.5362 11.901 16.6727 12.2943L18.1262 16.4815C18.2463 16.8204 18.5676 17.0469 18.9267 17.0469Z" fill="black"/>
<path d="M26.9254 14.1698C26.9254 12.5835 25.6349 11.293 24.0486 11.293C22.4624 11.293 21.1719 12.5835 21.1719 14.1698C21.1719 15.756 22.4624 17.0466 24.0486 17.0466C25.6349 17.0466 26.9254 15.7561 26.9254 14.1698ZM22.6795 14.1698C22.6795 13.4148 23.2936 12.8006 24.0486 12.8006C24.8037 12.8006 25.4178 13.4148 25.4178 14.1698C25.4178 14.9248 24.8037 15.5389 24.0486 15.5389C23.2936 15.5389 22.6795 14.9248 22.6795 14.1698Z" fill="black"/>
<path d="M29.5723 20.9267C29.5723 21.3431 29.9097 21.6805 30.3261 21.6805H39.3949C39.8113 21.6805 40.1487 21.3431 40.1487 20.9267C40.1487 20.5103 39.8113 20.1729 39.3949 20.1729H30.3261C29.9097 20.1729 29.5723 20.5104 29.5723 20.9267Z" fill="black"/>
<path d="M39.3953 23.502H35.5224C35.106 23.502 34.7686 23.8394 34.7686 24.2558C34.7686 24.6722 35.106 25.0096 35.5224 25.0096H39.3953C39.8117 25.0096 40.1491 24.6722 40.1491 24.2558C40.1491 23.8394 39.8117 23.502 39.3953 23.502Z" fill="black"/>
<path d="M38.3889 52.8442C38.1644 52.8442 38.0235 52.6858 37.6867 52.1768C37.3327 51.6421 36.7977 50.834 35.7274 50.834C34.6571 50.834 34.1221 51.6421 33.7681 52.1768C33.4312 52.6857 33.2904 52.8442 33.0659 52.8442C32.8413 52.8442 32.7004 52.6857 32.3634 52.1767C32.0095 51.642 31.4744 50.834 30.404 50.834C29.3335 50.834 28.7984 51.6421 28.4444 52.1767C28.1074 52.6856 27.9666 52.8442 27.7421 52.8442C27.3257 52.8442 26.9883 53.1816 26.9883 53.598C26.9883 54.0144 27.3257 54.3518 27.7421 54.3518C28.8125 54.3518 29.3476 53.5437 29.7016 53.0091C30.0386 52.5002 30.1794 52.3416 30.404 52.3416C30.6285 52.3416 30.7694 52.5 31.1063 53.0091C31.4604 53.5437 31.9955 54.3518 33.0659 54.3518C34.1362 54.3518 34.6712 53.5437 35.0252 53.009C35.3621 52.5001 35.503 52.3416 35.7274 52.3416C35.9518 52.3416 36.0927 52.5 36.4295 53.009C36.7835 53.5437 37.3185 54.3518 38.3889 54.3518C38.8053 54.3518 39.1427 54.0144 39.1427 53.598C39.1427 53.1816 38.8053 52.8442 38.3889 52.8442Z" fill="black"/>
<path d="M9.70703 29.4854V45.1424C9.70703 46.1188 10.5012 46.913 11.4776 46.913H18.8956C19.312 46.913 19.6494 46.5756 19.6494 46.1592C19.6494 45.7428 19.312 45.4053 18.8956 45.4053H11.4776C11.3327 45.4053 11.2147 45.2873 11.2147 45.1424V41.2391H30.2619V45.4053H21.9096C21.4932 45.4053 21.1558 45.7428 21.1558 46.1592C21.1558 46.5756 21.4932 46.913 21.9096 46.913H37.3034C38.2798 46.913 39.074 46.1188 39.074 45.1424V29.4854C39.074 28.5091 38.2798 27.7148 37.3034 27.7148H11.4776C10.5014 27.7148 9.70703 28.5092 9.70703 29.4854ZM11.4776 29.2225H30.2619V33.3888H11.2147V29.4854C11.2147 29.3405 11.3327 29.2225 11.4776 29.2225ZM11.2147 39.7315V34.8966H30.2619V39.7315H11.2147ZM37.5665 39.7315H31.7696V34.8966H37.5665V39.7315ZM37.3035 45.4054H31.7696V41.2392H37.5665V45.1425C37.5665 45.2874 37.4485 45.4054 37.3035 45.4054ZM37.5665 29.4854V33.3888H31.7696V29.2225H37.3035C37.4485 29.2225 37.5665 29.3405 37.5665 29.4854Z" fill="black"/>
</svg>
