<svg width="46" height="46" viewBox="0 0 46 46" fill="none" xmlns="http://www.w3.org/2000/svg">
<path d="M21.0833 26.3024C20.5009 25.9699 20.0168 25.4893 19.68 24.9093C19.3433 24.3294 19.166 23.6706 19.166 23C19.166 22.3294 19.3433 21.6706 19.68 21.0907C20.0168 20.5107 20.5009 20.0301 21.0833 19.6976V13.4167C21.0833 12.9083 21.2853 12.4208 21.6447 12.0614C22.0042 11.7019 22.4917 11.5 23 11.5C23.5083 11.5 23.9958 11.7019 24.3553 12.0614C24.7147 12.4208 24.9167 12.9083 24.9167 13.4167V19.6976C25.4991 20.0301 25.9832 20.5107 26.3199 21.0907C26.6567 21.6706 26.834 22.3294 26.834 23C26.834 23.6706 26.6567 24.3294 26.3199 24.9093C25.9832 25.4893 25.4991 25.9699 24.9167 26.3024V30.6667C24.9167 31.175 24.7147 31.6625 24.3553 32.022C23.9958 32.3814 23.5083 32.5833 23 32.5833C22.4917 32.5833 22.0042 32.3814 21.6447 32.022C21.2853 31.6625 21.0833 31.175 21.0833 30.6667V26.3024ZM23 0C22.4917 0 22.0042 0.201934 21.6447 0.561379C21.2853 0.920823 21.0833 1.40833 21.0833 1.91667C21.0833 2.425 21.2853 2.91251 21.6447 3.27195C22.0042 3.6314 22.4917 3.83333 23 3.83333C28.0833 3.83333 32.9584 5.85267 36.5529 9.44712C40.1473 13.0416 42.1667 17.9167 42.1667 23C42.1667 28.0833 40.1473 32.9584 36.5529 36.5529C32.9584 40.1473 28.0833 42.1667 23 42.1667C22.4917 42.1667 22.0042 42.3686 21.6447 42.728C21.2853 43.0875 21.0833 43.575 21.0833 44.0833C21.0833 44.5917 21.2853 45.0792 21.6447 45.4386C22.0042 45.7981 22.4917 46 23 46C29.1 46 34.9501 43.5768 39.2635 39.2635C43.5768 34.9501 46 29.1 46 23C46 16.9 43.5768 11.0499 39.2635 6.73654C34.9501 2.42321 29.1 0 23 0V0ZM3.50175 13.0027C3.12267 13.0027 2.7521 13.1151 2.43691 13.3257C2.12171 13.5363 1.87605 13.8356 1.73098 14.1859C1.58591 14.5361 1.54796 14.9215 1.62191 15.2933C1.69587 15.6651 1.87841 16.0066 2.14646 16.2746C2.41451 16.5427 2.75603 16.7252 3.12783 16.7992C3.49962 16.8731 3.885 16.8352 4.23523 16.6901C4.58545 16.545 4.8848 16.2994 5.0954 15.9842C5.30601 15.669 5.41842 15.2984 5.41842 14.9193C5.41842 14.411 5.21648 13.9235 4.85704 13.564C4.49759 13.2046 4.01008 13.0027 3.50175 13.0027ZM3.83333 23C3.83333 22.6209 3.72092 22.2504 3.51032 21.9352C3.29971 21.62 3.00037 21.3743 2.65014 21.2292C2.29992 21.0842 1.91454 21.0462 1.54274 21.1202C1.17095 21.1941 0.82943 21.3767 0.56138 21.6447C0.293329 21.9128 0.110784 22.2543 0.0368291 22.6261C-0.0371259 22.9979 0.000830455 23.3833 0.145898 23.7335C0.290966 24.0837 0.53663 24.383 0.851825 24.5936C1.16702 24.8043 1.53759 24.9167 1.91667 24.9167C2.425 24.9167 2.91251 24.7147 3.27196 24.3553C3.6314 23.9958 3.83333 23.5083 3.83333 23ZM8.09025 6.14675C7.71117 6.14675 7.3406 6.25916 7.02541 6.46977C6.71021 6.68037 6.46455 6.97971 6.31948 7.32994C6.17441 7.68016 6.13646 8.06554 6.21041 8.43734C6.28437 8.80914 6.46691 9.15065 6.73496 9.4187C7.00301 9.68676 7.34453 9.8693 7.71633 9.94325C8.08813 10.0172 8.4735 9.97925 8.82373 9.83419C9.17395 9.68912 9.4733 9.44345 9.6839 9.12826C9.89451 8.81307 10.0069 8.4425 10.0069 8.06342C10.0069 7.55508 9.80498 7.06757 9.44554 6.70813C9.08609 6.34868 8.59858 6.14675 8.09025 6.14675ZM14.9097 1.61192C14.5307 1.61192 14.1601 1.72433 13.8449 1.93493C13.5297 2.14554 13.284 2.44488 13.139 2.79511C12.9939 3.14533 12.956 3.53071 13.0299 3.90251C13.1039 4.2743 13.2864 4.61582 13.5545 4.88387C13.8225 5.15192 14.164 5.33447 14.5358 5.40842C14.9076 5.48238 15.293 5.44442 15.6432 5.29935C15.9935 5.15428 16.2928 4.90862 16.5034 4.59343C16.714 4.27823 16.8264 3.90766 16.8264 3.52858C16.8264 3.02025 16.6245 2.53274 16.265 2.1733C15.9056 1.81385 15.4181 1.61192 14.9097 1.61192ZM3.50175 29.164C3.12267 29.164 2.7521 29.2764 2.43691 29.487C2.12171 29.6976 1.87605 29.997 1.73098 30.3472C1.58591 30.6974 1.54796 31.0828 1.62191 31.4546C1.69587 31.8264 1.87841 32.1679 2.14646 32.436C2.41451 32.704 2.75603 32.8865 3.12783 32.9605C3.49962 33.0345 3.885 32.9965 4.23523 32.8514C4.58545 32.7064 4.8848 32.4607 5.0954 32.1455C5.30601 31.8303 5.41842 31.4597 5.41842 31.0807C5.41842 30.5723 5.21648 30.0848 4.85704 29.7254C4.49759 29.3659 4.01008 29.164 3.50175 29.164ZM8.09025 36.0199C7.71117 36.0199 7.3406 36.1323 7.02541 36.3429C6.71021 36.5535 6.46455 36.8529 6.31948 37.2031C6.17441 37.5533 6.13646 37.9387 6.21041 38.3105C6.28437 38.6823 6.46691 39.0238 6.73496 39.2919C7.00301 39.5599 7.34453 39.7425 7.71633 39.8164C8.08813 39.8904 8.4735 39.8524 8.82373 39.7074C9.17395 39.5623 9.4733 39.3166 9.6839 39.0014C9.89451 38.6862 10.0069 38.3157 10.0069 37.9366C10.0069 37.4282 9.80498 36.9407 9.44554 36.5813C9.08609 36.2219 8.59858 36.0199 8.09025 36.0199ZM14.9097 40.5547C14.5307 40.5547 14.1601 40.6672 13.8449 40.8778C13.5297 41.0884 13.284 41.3877 13.139 41.7379C12.9939 42.0882 12.956 42.4735 13.0299 42.8453C13.1039 43.2171 13.2864 43.5587 13.5545 43.8267C13.8225 44.0948 14.164 44.2773 14.5358 44.3513C14.9076 44.4252 15.293 44.3873 15.6432 44.2422C15.9935 44.0971 16.2928 43.8515 16.5034 43.5363C16.714 43.2211 16.8264 42.8505 16.8264 42.4714C16.8264 41.9631 16.6245 41.4756 16.265 41.1161C15.9056 40.7567 15.4181 40.5547 14.9097 40.5547Z" fill="#04103B"/>
</svg>
