<svg width="23" height="19" viewBox="0 0 23 19" fill="none" xmlns="http://www.w3.org/2000/svg">
<path d="M11.4551 18.9121C12.2738 18.9121 12.9375 18.2484 12.9375 17.4297C12.9375 16.611 12.2738 15.9473 11.4551 15.9473C10.6364 15.9473 9.97266 16.611 9.97266 17.4297C9.97266 18.2484 10.6364 18.9121 11.4551 18.9121Z" fill="black"/>
<path d="M22.7588 4.91283C19.8061 1.74481 15.8077 4.49218e-05 11.4998 0C7.19228 4.49218e-05 3.19393 1.74481 0.241172 4.91283C-0.0970895 5.2758 -0.0770993 5.84433 0.285869 6.18263C0.648882 6.52089 1.21737 6.50095 1.55567 6.13794C4.16473 3.33859 7.6963 1.79692 11.5001 1.79687C15.3037 1.79692 18.8352 3.33859 21.4443 6.13794C21.6213 6.32778 21.8612 6.42382 22.1017 6.42382C22.3211 6.42382 22.541 6.34395 22.7141 6.18263C23.0771 5.84428 23.0971 5.2758 22.7588 4.91283Z" fill="black"/>
<path d="M19.1807 8.41007C16.9981 6.21096 14.1712 4.99991 11.2207 5C8.26956 5.00004 5.44263 6.21114 3.26068 8.41016C2.91119 8.76239 2.91339 9.33123 3.26562 9.68073C3.61786 10.0302 4.1867 10.028 4.5362 9.67579C6.37822 7.81934 8.75216 6.79692 11.2207 6.79688C13.6886 6.79679 16.0626 7.81925 17.9053 9.67587C18.0809 9.85282 18.3119 9.94141 18.543 9.94141C18.7717 9.94141 19.0006 9.85453 19.1759 9.68064C19.5281 9.3311 19.5302 8.76225 19.1807 8.41007Z" fill="black"/>
<path d="M15.8657 12.3442C14.6968 11.1861 13.0214 10.4668 11.493 10.4668C11.4929 10.4668 11.4925 10.4668 11.4924 10.4668H11.4276C11.4274 10.4668 11.4272 10.4668 11.427 10.4668C9.89858 10.4668 8.22299 11.1862 7.05417 12.3442C6.70171 12.6934 6.69906 13.2622 7.04828 13.6147C7.22397 13.792 7.45523 13.8809 7.68653 13.8809C7.91505 13.8809 8.14366 13.7942 8.31881 13.6207C9.1509 12.7963 10.3708 12.2637 11.427 12.2637C11.4272 12.2637 11.4274 12.2637 11.4275 12.2637H11.4925C11.4927 12.2637 11.4927 12.2637 11.4929 12.2637C12.549 12.2637 13.769 12.7963 14.601 13.6207C14.9535 13.9699 15.5224 13.9673 15.8716 13.6147C16.2208 13.2623 16.2182 12.6934 15.8657 12.3442Z" fill="black"/>
</svg>
