<svg width="25" height="22" viewBox="0 0 25 22" fill="none" xmlns="http://www.w3.org/2000/svg">
<path d="M23.4033 18.7346H23.2486V6.77994C23.2486 6.30208 22.8677 5.91334 22.3994 5.91334H21.8574C22.5014 5.19338 23.1084 4.43887 23.6733 3.65245L23.9151 3.83521C24.1051 3.97887 24.3552 4.00265 24.5679 3.89719C24.7806 3.79182 24.917 3.57646 24.9238 3.33531L24.9997 0.664036C25.0057 0.453156 24.9101 0.252249 24.7439 0.126689C24.5778 0.00112872 24.3617 -0.0335775 24.1658 0.0336905L21.6838 0.885985C21.4597 0.962877 21.2976 1.1587 21.2607 1.397C21.2238 1.63531 21.3189 1.87262 21.5089 2.01633L21.9062 2.31662C21.5476 2.81636 21.1674 3.30704 20.7732 3.77896C20.6419 3.93613 20.6604 4.1722 20.8144 4.30618C20.9683 4.44012 21.1997 4.42137 21.331 4.26415C21.8171 3.68227 22.2824 3.07267 22.714 2.45235C22.8294 2.2863 22.7936 2.05652 22.6333 1.93535L22.1 1.53219L24.2628 0.789496L24.1967 3.11725L23.8115 2.82609C23.7325 2.7663 23.6331 2.74127 23.5359 2.75722C23.4387 2.77293 23.3518 2.82793 23.2947 2.90976C20.8906 6.35763 17.6715 9.20593 13.9855 11.1469C10.2967 13.0893 6.15302 14.1159 2.0024 14.1159H1.09947C0.897363 14.1159 0.73298 13.9482 0.73298 13.742C0.73298 13.5357 0.897363 13.368 1.09947 13.368H2.0025C5.4434 13.368 8.79268 12.6703 11.9573 11.2941C15.0979 9.92847 17.8925 7.96703 20.2635 5.4644C20.4042 5.31585 20.4002 5.07914 20.2547 4.93558C20.1091 4.79202 19.8771 4.79606 19.7365 4.94456C18.8178 5.91428 17.8334 6.80004 16.7885 7.59908C16.7867 7.59908 16.7851 7.59883 16.7833 7.59883H13.8594C13.3911 7.59883 13.0102 7.98758 13.0102 8.46538V9.97475C12.6832 10.1409 12.3519 10.2999 12.0165 10.4519V9.92105C12.0165 9.44319 11.6355 9.05444 11.1673 9.05444H8.24338C7.77511 9.05444 7.3942 9.44319 7.3942 9.92105V12.0137C7.06436 12.0891 6.7331 12.1577 6.40043 12.2192V11.1074C6.40043 10.6296 6.01947 10.2408 5.55125 10.2408H2.62724C2.15897 10.2408 1.77806 10.6296 1.77806 11.1074V12.62H1.09947C0.493198 12.62 0 13.1233 0 13.742C0 14.3606 0.493198 14.8639 1.09947 14.8639H1.77801V18.7346H1.58079C0.727458 18.7346 0.0332284 19.443 0.0332284 20.3138V21.3386C0.0332284 21.6928 0.315572 21.9809 0.662614 21.9809H24.3214C24.6685 21.9809 24.9508 21.6928 24.9508 21.3386V20.3138C24.9508 19.443 24.2565 18.7346 23.4033 18.7346ZM13.7432 8.46533C13.7432 8.39991 13.7953 8.34675 13.8594 8.34675H15.7562C15.1062 8.79205 14.4347 9.20538 13.7432 9.58655V8.46533ZM8.12708 9.92105C8.12708 9.85562 8.17922 9.80242 8.24329 9.80242H11.1672C11.2313 9.80242 11.2834 9.85562 11.2834 9.92105V10.7697C10.2498 11.1986 9.1966 11.5539 8.12703 11.8343V9.92105H8.12708ZM2.62724 10.9888H5.55115C5.61526 10.9888 5.66735 11.042 5.66735 11.1074V12.3428C4.62671 12.5018 3.57357 12.5923 2.51099 12.6143V11.1074C2.51099 11.042 2.56313 10.9888 2.62724 10.9888ZM21.1636 6.66131H22.3994C22.4635 6.66131 22.5157 6.71452 22.5157 6.77994V18.7346H19.3593V8.36899C19.9855 7.82786 20.5881 7.2582 21.1636 6.66131ZM14.3217 11.8116C15.2089 11.3444 16.0695 10.8256 16.8995 10.2601V14.2429C16.8995 14.4494 17.0636 14.6168 17.266 14.6168C17.4684 14.6168 17.6325 14.4494 17.6325 14.2429V9.74343C17.9695 9.49704 18.3007 9.24238 18.6262 8.98044V18.7346H17.6326V15.8376C17.6326 15.631 17.4685 15.4637 17.2661 15.4637C17.0637 15.4637 16.8996 15.631 16.8996 15.8376V18.7346H13.7432V12.1063C13.9371 12.0102 14.1301 11.9125 14.3217 11.8116ZM8.12708 14.1376C9.19709 13.8818 10.2518 13.5598 11.2834 13.1731V18.7346H8.12708V14.1376ZM12.0165 12.8859C12.3505 12.7492 12.6818 12.6058 13.0102 12.4555V18.7346H12.0165V12.8859ZM2.51099 14.8583C3.56702 14.8376 4.62144 14.7526 5.66735 14.6048V15.8444C5.66735 16.051 5.83144 16.2184 6.03384 16.2184C6.23624 16.2184 6.40033 16.051 6.40033 15.8444V14.4911C6.73276 14.4346 7.06397 14.3712 7.3941 14.302V18.7346H6.40033V17.4393C6.40033 17.2327 6.23624 17.0653 6.03384 17.0653C5.83144 17.0653 5.66735 17.2327 5.66735 17.4393V18.7346H2.51099V14.8583ZM24.2178 21.2329H0.766208V20.3138C0.766208 19.8555 1.13162 19.4826 1.58079 19.4826H23.4033C23.8524 19.4826 24.2178 19.8555 24.2178 20.3138V21.2329Z" fill="black"/>
</svg>
