<svg width="27" height="27" viewBox="0 0 27 27" fill="none" xmlns="http://www.w3.org/2000/svg">
<path d="M17.2523 0.145863C17.149 0.0520042 17.0144 0 16.8749 0C16.7353 0 16.6008 0.0520042 16.4975 0.145863C16.2527 0.366607 10.6499 5.48738 8.04803 11.4224C7.76759 11.324 7.44476 11.2502 7.02737 11.2502C6.04246 11.2502 5.51401 11.6177 5.0894 11.9132C4.71863 12.1714 4.42585 12.3752 3.79357 12.3752C3.1624 12.3752 2.86962 12.1713 2.49937 11.9137C2.07529 11.6182 1.54684 11.2502 0.562512 11.2502C0.488628 11.2501 0.41546 11.2647 0.347191 11.2929C0.278922 11.3212 0.216892 11.3626 0.164648 11.4148C0.112404 11.4671 0.0709716 11.5291 0.04272 11.5974C0.0144683 11.6656 -4.84112e-05 11.7388 1.2129e-07 11.8127C-4.84112e-05 11.8866 0.0144683 11.9598 0.04272 12.028C0.0709716 12.0963 0.112404 12.1583 0.164648 12.2106C0.216892 12.2628 0.278922 12.3042 0.347191 12.3325C0.41546 12.3607 0.488628 12.3753 0.562512 12.3752C1.19368 12.3752 1.48646 12.579 1.85671 12.8366C2.28079 13.1322 2.80924 13.5002 3.79357 13.5002C4.77848 13.5002 5.30745 13.1322 5.73207 12.8366C6.10284 12.579 6.39562 12.3752 7.02737 12.3752C7.66017 12.3752 7.95353 12.579 8.32483 12.8372C8.74944 13.1327 9.27842 13.5002 10.2639 13.5002C11.2488 13.5002 11.7778 13.1327 12.203 12.8372C12.5738 12.579 12.8671 12.3752 13.4999 12.3752C13.5738 12.3753 13.647 12.3607 13.7152 12.3325C13.7835 12.3042 13.8455 12.2628 13.8978 12.2106C13.95 12.1583 13.9915 12.0963 14.0197 12.028C14.048 11.9598 14.0625 11.8866 14.0624 11.8127C14.0625 11.7388 14.048 11.6656 14.0197 11.5974C13.9915 11.5291 13.95 11.4671 13.8978 11.4148C13.8455 11.3626 13.7835 11.3212 13.7152 11.2929C13.647 11.2647 13.5738 11.2501 13.4999 11.2502C12.5145 11.2502 11.9855 11.6177 11.5603 11.9132C11.1895 12.1714 10.8962 12.3752 10.264 12.3752C9.67292 12.3752 9.37682 12.1949 9.03832 11.961C11.1541 7.07462 15.5594 2.60252 16.8749 1.33564C18.6267 3.02365 25.8749 10.3987 25.8749 16.8751C25.8749 21.8376 21.8374 25.875 16.8749 25.875C14.635 25.875 12.5155 25.0407 10.8749 23.5675C11.4835 23.4548 11.8765 23.189 12.203 22.962C12.5738 22.7038 12.8672 22.5001 13.5 22.5001C13.8109 22.5001 14.0625 22.2485 14.0625 21.9375C14.0625 21.6266 13.8109 21.375 13.5 21.375C12.5145 21.375 11.9855 21.7425 11.5604 22.0381C11.1896 22.2962 10.8962 22.5 10.264 22.5C9.63121 22.5 9.33785 22.2962 8.96708 22.0381C8.54188 21.7425 8.01291 21.375 7.02747 21.375C6.04256 21.375 5.51412 21.7425 5.0895 22.0381C4.71873 22.2962 4.42595 22.5 3.79367 22.5C3.1625 22.5 2.86972 22.2962 2.49948 22.0386C2.07539 21.7431 1.54695 21.375 0.562618 21.375C0.251699 21.375 0.000105589 21.6266 0.000105589 21.9375C0.000105589 22.2485 0.251699 22.5001 0.562618 22.5001C1.19379 22.5001 1.48657 22.7039 1.85681 22.9615C2.2809 23.257 2.80934 23.625 3.79367 23.625C4.77858 23.625 5.30756 23.257 5.73217 22.9615C6.10294 22.7039 6.39572 22.5001 7.02747 22.5001C7.66028 22.5001 7.95364 22.7039 8.32494 22.962C8.55407 23.1214 8.82137 23.2971 9.16662 23.4295C11.0967 25.6968 13.8945 27 16.8749 27C22.4576 27 26.9998 22.4578 26.9998 16.8751C26.9998 9.05129 17.65 0.505666 17.2523 0.145863Z" fill="#00C2FF"/>
<path d="M0.562512 19.125C1.19368 19.125 1.48646 19.3288 1.85671 19.5864C2.28079 19.8819 2.80924 20.25 3.79357 20.25C3.86745 20.25 3.94062 20.2355 4.00889 20.2072C4.07716 20.179 4.13919 20.1376 4.19143 20.0853C4.24368 20.0331 4.28511 19.971 4.31336 19.9028C4.34161 19.8345 4.35613 19.7613 4.35608 19.6875C4.35613 19.6136 4.34161 19.5404 4.31336 19.4721C4.28511 19.4039 4.24368 19.3418 4.19143 19.2896C4.13919 19.2373 4.07716 19.1959 4.00889 19.1677C3.94062 19.1394 3.86745 19.1249 3.79357 19.1249C3.1624 19.1249 2.86962 18.9211 2.49937 18.6635C2.07529 18.368 1.54684 18 0.562512 18C0.251593 18 1.2129e-07 18.2516 1.2129e-07 18.5625C1.2129e-07 18.8734 0.251593 19.125 0.562512 19.125ZM7.02737 18C6.71645 18 6.46485 18.2516 6.46485 18.5625C6.46485 18.8735 6.71645 19.125 7.02737 19.125C7.66017 19.125 7.95353 19.3289 8.3243 19.587C8.7495 19.8825 9.27847 20.25 10.2639 20.25C11.2488 20.25 11.7778 19.8825 12.203 19.587C12.5738 19.3288 12.8671 19.125 13.4999 19.125C14.1432 19.125 14.4705 19.3343 14.8842 19.5991C15.3615 19.904 15.9026 20.2501 16.8749 20.2501C16.9488 20.2501 17.0219 20.2356 17.0902 20.2073C17.1585 20.1791 17.2205 20.1377 17.2728 20.0854C17.325 20.0332 17.3664 19.9711 17.3947 19.9029C17.4229 19.8346 17.4374 19.7614 17.4374 19.6876C17.4374 19.6137 17.4229 19.5405 17.3947 19.4722C17.3664 19.404 17.325 19.3419 17.2728 19.2897C17.2205 19.2374 17.1585 19.196 17.0902 19.1678C17.0219 19.1395 16.9488 19.125 16.8749 19.125C16.2316 19.125 15.9043 18.9157 15.4906 18.651C15.0133 18.3461 14.4722 18 13.4999 18C12.5145 18 11.9855 18.3675 11.5603 18.663C11.1895 18.9212 10.8962 19.125 10.264 19.125C9.63115 19.125 9.3378 18.9212 8.9665 18.663C8.54183 18.3675 8.01286 18 7.02737 18ZM7.02737 14.6251C6.04246 14.6251 5.51401 14.9926 5.0894 15.2881C4.71863 15.5463 4.42585 15.75 3.79357 15.75C3.1624 15.75 2.86962 15.5462 2.49937 15.2886C2.07529 14.9931 1.54684 14.6251 0.562512 14.6251C0.488628 14.625 0.41546 14.6395 0.347191 14.6678C0.278922 14.696 0.216892 14.7375 0.164648 14.7897C0.112404 14.8419 0.0709716 14.904 0.04272 14.9722C0.0144683 15.0405 -4.84112e-05 15.1137 1.2129e-07 15.1876C-4.84112e-05 15.2614 0.0144683 15.3346 0.04272 15.4029C0.0709716 15.4712 0.112404 15.5332 0.164648 15.5854C0.216892 15.6377 0.278922 15.6791 0.347191 15.7074C0.41546 15.7356 0.488628 15.7501 0.562512 15.7501C1.19368 15.7501 1.48646 15.9539 1.85671 16.2115C2.28079 16.507 2.80924 16.875 3.79357 16.875C4.77848 16.875 5.30745 16.507 5.73206 16.2115C6.10284 15.9539 6.39562 15.7501 7.02737 15.7501C7.10125 15.7501 7.17442 15.7356 7.24269 15.7074C7.31096 15.6791 7.37299 15.6377 7.42523 15.5854C7.47747 15.5332 7.51891 15.4712 7.54716 15.4029C7.57541 15.3346 7.58993 15.2614 7.58988 15.1876C7.58993 15.1137 7.57541 15.0405 7.54716 14.9722C7.51891 14.904 7.47747 14.8419 7.42523 14.7897C7.37299 14.7375 7.31096 14.696 7.24269 14.6678C7.17442 14.6395 7.10125 14.625 7.02737 14.6251ZM12.203 16.212C12.5738 15.9538 12.8671 15.75 13.4999 15.75C14.1311 15.75 14.4239 15.9538 14.7941 16.2114C15.2182 16.507 15.7466 16.875 16.731 16.875C17.7159 16.875 18.2449 16.507 18.6695 16.2114C19.0402 15.9538 19.333 15.75 19.9648 15.75C20.0387 15.7501 20.1118 15.7356 20.1801 15.7073C20.2484 15.6791 20.3104 15.6376 20.3626 15.5854C20.4149 15.5331 20.4563 15.4711 20.4846 15.4028C20.5128 15.3346 20.5273 15.2614 20.5273 15.1875C20.5273 15.1136 20.5128 15.0405 20.4846 14.9722C20.4563 14.9039 20.4149 14.8419 20.3626 14.7896C20.3104 14.7374 20.2484 14.696 20.1801 14.6677C20.1118 14.6395 20.0387 14.625 19.9648 14.625C18.9799 14.625 18.4514 14.9925 18.0268 15.288C17.656 15.5462 17.3633 15.75 16.731 15.75C16.0998 15.75 15.807 15.5462 15.4368 15.2885C15.0127 14.993 14.4843 14.625 13.4999 14.625C12.5145 14.625 11.9855 14.9925 11.5603 15.288C11.1895 15.5462 10.8962 15.75 10.264 15.75C9.95304 15.75 9.70145 16.0016 9.70145 16.3125C9.70145 16.6234 9.95304 16.875 10.264 16.875C11.2488 16.875 11.7778 16.5075 12.203 16.212Z" fill="#00C2FF"/>
</svg>
